<?xml version="1.0" encoding="utf-8"?>
<!-- Generator: Adobe Illustrator 16.0.0, SVG Export Plug-In . SVG Version: 6.00 Build 0)  -->
<!DOCTYPE svg PUBLIC "-//W3C//DTD SVG 1.1//EN" "http://www.w3.org/Graphics/SVG/1.1/DTD/svg11.dtd">
<svg version="1.1" id="Layer_1" xmlns="http://www.w3.org/2000/svg" xmlns:xlink="http://www.w3.org/1999/xlink" x="0px" y="0px"
	 width="500px" height="500px" viewBox="0 0 500 500" enable-background="new 0 0 500 500" xml:space="preserve">
<g>
	<g>
		<path fill-rule="evenodd" clip-rule="evenodd" fill="#8CC541" d="M157.66,244.16c0,10.963,0,21.926-0.001,32.887
			c0,0.52-0.014,1.039-0.019,1.559c-0.017,1.689-1.909,2.746-3.387,1.896c-0.35-0.201-0.709-0.387-1.06-0.588
			c-19.329-11.041-38.657-22.084-57.985-33.127c-2.256-1.291-2.354-1.459-2.354-4.109c-0.001-21.926,0-43.85,0-65.775
			c0-0.52-0.027-1.043,0.025-1.558c0.188-1.845,2.059-2.716,3.423-1.905c0.396,0.235,0.805,0.45,1.206,0.679
			c19.279,11.014,38.558,22.028,57.836,33.043c2.278,1.301,2.316,1.365,2.316,3.938C157.662,222.119,157.66,233.14,157.66,244.16z"
			/>
		<path fill-rule="evenodd" clip-rule="evenodd" fill="#1D76BB" d="M150.656,290.371c0.031,0.762-0.289,1.357-0.875,1.797
			c-0.368,0.273-0.78,0.492-1.18,0.721c-16.722,9.559-33.444,19.117-50.167,28.674c-2.754,1.572-5.537,3.098-8.256,4.729
			c-1.292,0.775-2.416,0.752-3.711,0.006c-8.446-4.863-16.918-9.68-25.38-14.516c-10.965-6.268-21.928-12.537-32.892-18.807
			c-0.4-0.229-0.82-0.432-1.193-0.699c-1.461-1.051-1.429-2.854,0.063-3.896c0.33-0.23,0.688-0.422,1.038-0.623
			c19.326-11.045,38.653-22.09,57.979-33.133c0.15-0.086,0.311-0.156,0.453-0.254c1.179-0.813,2.311-0.75,3.548-0.021
			c3.379,1.988,6.802,3.902,10.207,5.85c15.922,9.098,31.845,18.197,47.767,27.295c0.551,0.316,1.115,0.613,1.639,0.969
			C150.36,288.912,150.7,289.559,150.656,290.371z"/>
		<path fill-rule="evenodd" clip-rule="evenodd" fill="#F69321" d="M18.983,244.167c0-10.789,0-21.578,0-32.367
			c0-0.346,0.039-0.697-0.007-1.039c-0.222-1.668,0.565-2.633,1.99-3.443c19.447-11.068,38.869-22.181,58.297-33.282
			c0.4-0.229,0.795-0.474,1.217-0.656c1.466-0.636,3.002,0.208,3.244,1.783c0.061,0.396,0.038,0.805,0.038,1.209
			c0.001,22.272,0.001,44.542,0.001,66.813c0,0.23-0.004,0.463-0.002,0.693c0.008,1.008-0.413,1.777-1.285,2.291
			c-0.397,0.234-0.798,0.463-1.199,0.691c-19.278,11.016-38.555,22.032-57.833,33.047c-0.4,0.229-0.798,0.465-1.214,0.662
			c-1.646,0.781-3.304-0.582-3.24-1.957c0.024-0.518-0.006-1.037-0.006-1.557C18.983,266.094,18.983,255.131,18.983,244.167z"/>
	</g>
	<g>
		<path fill-rule="evenodd" clip-rule="evenodd" fill="#444344" d="M223.341,242.164c-0.196,0.047-0.413,0.143-0.631,0.143
			c-2.653,0.012-5.307,0.016-7.959,0.004c-0.695-0.002-0.717-0.053-0.969-0.727c-0.201-0.539-0.376-1.092-0.631-1.605
			c-1.832-3.695-4.79-5.65-8.943-5.697c-0.689-0.01-1.389,0.025-2.068,0.137c-3.243,0.525-5.594,2.268-7.09,5.205
			c-1.145,2.25-1.706,4.654-1.931,7.133c-0.308,3.402-0.207,6.799,0.603,10.143c0.258,1.066,0.623,2.1,1.086,3.094
			c1.693,3.639,4.552,5.539,8.556,5.732c1.28,0.063,2.537-0.109,3.764-0.443c2.547-0.689,4.331-2.328,5.547-4.621
			c0.514-0.969,0.903-1.994,1.152-3.066c0.107-0.459,0.391-0.67,0.862-0.668c2.711,0.008,5.422,0.002,8.132,0.016
			c0.438,0.004,0.593,0.236,0.494,0.684c-0.941,4.248-2.65,8.102-5.819,11.186c-3.003,2.922-6.623,4.533-10.773,4.988
			c-3.014,0.332-5.983,0.123-8.909-0.695c-4.784-1.338-8.432-4.158-10.965-8.414c-1.795-3.016-2.797-6.297-3.214-9.777
			c-0.52-4.34-0.294-8.633,0.714-12.883c0.481-2.027,1.187-3.979,2.182-5.809c3.145-5.785,8.023-9.041,14.531-9.928
			c3.788-0.516,7.505-0.24,11.062,1.15c6.605,2.58,10.318,7.479,11.254,14.494C223.383,241.992,223.36,242.048,223.341,242.164z"/>
		<path fill-rule="evenodd" clip-rule="evenodd" fill="#444344" d="M424.89,251.357c0.492-0.559,0.911-1.026,1.322-1.5
			c2.682-3.094,5.363-6.191,8.044-9.287c0.265-0.305,0.534-0.605,0.792-0.916c0.271-0.328,0.589-0.502,1.037-0.498
			c3.229,0.025,6.459,0.031,9.689,0.049c0.035,0,0.069,0.068,0.123,0.125c0.048,0.459-0.351,0.672-0.602,0.949
			c-2.906,3.205-5.824,6.398-8.739,9.596c-0.156,0.17-0.31,0.342-0.467,0.512c-1.071,1.149-0.939,0.997-0.313,2.211
			c3.092,5.992,6.2,11.975,9.295,17.965c0.259,0.502,0.616,0.969,0.661,1.336c-0.03,0.477-0.242,0.479-0.393,0.479
			c-2.826,0.012-5.653-0.002-8.479,0.027c-0.623,0.008-0.924-0.27-1.172-0.793c-0.764-1.615-1.566-3.211-2.352-4.814
			c-1.368-2.795-2.729-5.594-4.104-8.387c-0.363-0.738-0.497-0.754-1.098-0.148c-0.974,0.984-1.914,2.002-2.902,2.971
			c-0.444,0.436-0.622,0.906-0.617,1.525c0.022,2.768,0.006,5.537,0.011,8.307c0.003,1.311,0.022,1.336-1.337,1.332
			c-2.191-0.008-4.384,0.006-6.576-0.006c-0.947-0.006-1.004-0.074-1.03-0.949c-0.012-0.402-0.003-0.807-0.003-1.211
			c0-13.672,0-27.344,0-41.016c0-0.404-0.009-0.809,0.003-1.211c0.025-0.914,0.062-0.967,1.007-0.971
			c2.365-0.014,4.73-0.01,7.096,0.002c0.739,0.006,0.81,0.088,0.833,0.781c0.017,0.461,0.007,0.922,0.007,1.385
			c0,6.98-0.001,13.961,0.005,20.939C424.632,250.47,424.543,250.818,424.89,251.357z"/>
		<path fill-rule="evenodd" clip-rule="evenodd" fill="#444344" d="M343.911,260.785c0,3.287,0.001,6.572-0.001,9.857
			c0,0.404-0.005,0.807-0.023,1.211c-0.015,0.344-0.235,0.496-0.555,0.529c-0.114,0.01-0.23,0.01-0.346,0.01
			c-2.19,0-4.381,0.008-6.571-0.004c-0.666-0.004-0.762-0.15-0.99-0.725c-0.224-0.563,0.11-1.299-0.537-1.723
			c-0.467,0.328-0.932,0.66-1.402,0.984c-1.393,0.959-2.919,1.615-4.574,1.963c-2.63,0.549-5.26,0.521-7.893-0.012
			c-4.072-0.824-6.821-3.83-7-8.258c-0.058-1.443,0.061-2.875,0.419-4.283c0.633-2.492,2.125-4.303,4.358-5.531
			c1.74-0.957,3.64-1.428,5.573-1.77c2.098-0.371,4.203-0.703,6.305-1.047c0.856-0.141,1.673-0.404,2.486-0.707
			c1.873-0.698,2.327-3.733,0.528-5.008c-0.234-0.166-0.471-0.344-0.734-0.451c-2.221-0.91-4.476-1.027-6.736-0.176
			c-1.345,0.506-2.04,1.629-2.533,2.9c-0.165,0.426-0.188,0.977-0.479,1.264c-0.431,0.426-1.097,0.188-1.66,0.193
			c-1.902,0.02-3.805,0.012-5.707,0c-0.592-0.004-0.721-0.146-0.699-0.709c0.062-1.627,0.398-3.195,1.057-4.689
			c0.978-2.215,2.649-3.732,4.807-4.752c1.365-0.646,2.808-1.068,4.293-1.268c3.274-0.439,6.55-0.465,9.802,0.23
			c0.225,0.049,0.447,0.111,0.669,0.172c4.638,1.246,7.199,4.299,7.861,9.016c0.192,1.373,0.297,2.748,0.288,4.135
			C343.897,255.021,343.911,257.904,343.911,260.785z M334.954,256.43c-1.94,1.035-3.869,1.336-5.768,1.732
			c-1.352,0.283-2.685,0.619-3.936,1.217c-1.685,0.809-2.449,2.178-2.4,4.025c0.052,1.939,1.068,3.156,2.965,3.42
			c2.183,0.305,4.245-0.082,6.06-1.387c1.762-1.268,2.88-2.971,3.061-5.162C335.036,259.08,334.954,257.869,334.954,256.43z"/>
		<path fill-rule="evenodd" clip-rule="evenodd" fill="#434344" d="M472.905,272.287c-0.044-0.066-0.072-0.113-0.105-0.158
			c-0.494-0.646-0.09-1.594-0.73-2.191c-0.656,0.451-1.295,0.932-1.973,1.352c-2.484,1.541-5.249,2.025-8.112,2
			c-1.437-0.012-2.868-0.176-4.28-0.525c-4.313-1.066-6.463-4.584-6.498-8.123c-0.014-1.383,0.019-2.758,0.346-4.121
			c0.617-2.57,2.111-4.439,4.396-5.705c1.789-0.992,3.749-1.459,5.742-1.803c2.043-0.352,4.09-0.686,6.137-1.021
			c0.856-0.141,1.678-0.391,2.487-0.703c1.886-0.727,2.368-3.665,0.555-5.004c-0.185-0.135-0.37-0.285-0.577-0.377
			c-2.321-1.027-4.679-1.131-7.052-0.201c-1.024,0.402-1.648,1.242-2.109,2.193c-0.225,0.461-0.383,0.965-0.501,1.465
			c-0.114,0.492-0.399,0.648-0.86,0.646c-1.326-0.006-2.652,0-3.979,0.002c-0.75,0-1.499,0.006-2.249-0.004
			c-1.276-0.016-1.319-0.035-1.211-1.227c0.447-4.943,2.784-7.908,7.117-9.445c2.541-0.9,5.186-1.082,7.841-1.049
			c2.073,0.025,4.137,0.219,6.144,0.844c3.787,1.184,6.204,3.629,7.094,7.523c0.282,1.238,0.511,2.488,0.514,3.762
			c0.015,6.977,0.016,13.954,0.02,20.93c0,0.23,0.012,0.473-0.058,0.684c-0.043,0.133-0.212,0.258-0.353,0.313
			c-0.153,0.061-0.34,0.049-0.512,0.049c-2.249,0-4.498,0-6.746-0.008C473.224,272.381,473.056,272.318,472.905,272.287z
			 M472.083,256.467c-1.924,0.99-3.855,1.307-5.763,1.703c-1.357,0.281-2.693,0.625-3.949,1.227c-2.05,0.982-2.511,2.82-2.338,4.416
			c0.183,1.691,1.165,2.746,2.857,2.998c2.319,0.348,4.49-0.088,6.374-1.541c1.566-1.207,2.621-2.779,2.798-4.783
			C472.173,259.23,472.083,257.959,472.083,256.467z"/>
		<path fill-rule="evenodd" clip-rule="evenodd" fill="#434343" d="M269.051,245.417c-2.422,0-4.845,0-7.268,0
			c-0.346,0-0.692-0.008-1.038,0.006c-0.562,0.025-0.741,0.186-0.774,0.691c-0.019,0.289-0.014,0.578-0.014,0.865
			c0,3.924-0.004,7.846,0.002,11.768c0.002,1.156,0.083,2.307,0.417,3.422c0.699,2.326,2.012,3.326,4.411,3.369
			c0.402,0.008,0.809-0.004,1.208-0.055c1.411-0.174,2.483-0.875,3.166-2.131c0.388-0.713,0.673-1.471,0.736-2.287
			c0.067-0.863,0.142-1.725,0.15-2.588c0.022-2.365,0.002-4.73,0.016-7.096c0.004-0.725,0.125-0.864,0.753-0.868
			c2.25-0.014,4.499-0.012,6.749,0c0.574,0.004,0.705,0.133,0.704,0.725c-0.007,3.402-0.018,6.807-0.056,10.209
			c-0.016,1.396-0.363,2.75-0.861,4.041c-1.606,4.168-4.711,6.609-9.029,7.479c-2.625,0.529-5.286,0.486-7.894-0.197
			c-4.954-1.299-7.922-4.488-8.869-9.521c-0.234-1.244-0.346-2.508-0.344-3.785c0.014-9.229,0.007-18.458,0.008-27.688
			c0-0.346,0.002-0.691,0.021-1.037c0.018-0.33,0.208-0.529,0.537-0.547c0.46-0.021,0.922-0.02,1.383-0.02
			c2.019-0.002,4.038-0.006,6.057,0.008c0.591,0.004,0.717,0.119,0.722,0.713c0.018,2.135,0.005,4.268,0.015,6.402
			c0.01,2.063-0.191,1.859,1.842,1.863c4.903,0.006,9.806,0,14.709,0.004c0.46,0,0.921,0.018,1.38,0.039
			c0.198,0.008,0.286,0.164,0.336,0.33c0.032,0.109,0.046,0.227,0.046,0.342c0.002,1.615,0.011,3.23-0.006,4.844
			c-0.005,0.572-0.132,0.689-0.735,0.691c-2.827,0.01-5.653,0.004-8.479,0.004C269.051,245.416,269.051,245.416,269.051,245.417z"/>
		<path fill-rule="evenodd" clip-rule="evenodd" fill="#434344" d="M389.157,238.263c2.735,0.098,4.84,0.365,6.862,1.139
			c4.285,1.637,7.316,4.549,8.898,8.861c1.837,5.006,1.89,10.077-0.03,15.057c-2.242,5.814-6.683,8.91-12.771,9.773
			c-2.54,0.361-5.071,0.262-7.562-0.346c-5.507-1.34-9.364-4.594-11.193-10.018c-1.56-4.623-1.595-9.316,0.019-13.926
			c2.108-6.021,6.549-9.293,12.746-10.299C387.318,238.312,388.54,238.308,389.157,238.263z M397.298,255.855
			c0.041-2.09-0.191-4.084-1.024-5.967c-0.926-2.094-2.502-3.395-4.758-3.879c-0.911-0.195-1.823-0.293-2.748-0.234
			c-3.603,0.229-5.855,1.992-6.815,5.34c-0.695,2.428-0.743,4.889-0.423,7.369c0.148,1.148,0.41,2.271,0.901,3.324
			c0.906,1.943,2.364,3.213,4.47,3.754c0.968,0.248,1.936,0.289,2.915,0.266c3.468-0.09,5.748-1.797,6.82-5.08
			C397.162,259.141,397.338,257.486,397.298,255.855z"/>
		<path fill-rule="evenodd" clip-rule="evenodd" fill="#454445" d="M362.919,249.892c0,6.858,0,13.713-0.001,20.571
			c0,0.461-0.006,0.92-0.025,1.381c-0.014,0.34-0.228,0.51-0.55,0.539c-0.229,0.02-0.461,0.014-0.691,0.014
			c-2.247,0-4.494,0.008-6.741-0.008c-0.781-0.004-0.86-0.105-0.886-0.906c-0.011-0.346-0.003-0.691-0.003-1.037
			c0-13.83-0.002-27.657,0.002-41.485c0-2.15-0.227-1.924,1.942-1.934c2.016-0.008,4.033-0.01,6.05,0.004
			c0.785,0.006,0.872,0.113,0.899,0.91c0.014,0.402,0.004,0.807,0.004,1.209C362.919,236.064,362.919,242.978,362.919,249.892z"/>
		<path fill-rule="evenodd" clip-rule="evenodd" fill="#424243" d="M296.587,242.669c0.533-0.617,0.849-1.029,1.212-1.395
			c1.64-1.65,3.594-2.672,5.939-2.848c1.033-0.078,2.07-0.113,3.106-0.143c0.323-0.008,0.521,0.201,0.554,0.537
			c0.012,0.113,0.019,0.229,0.019,0.344c0.001,2.422,0.008,4.842-0.005,7.262c-0.003,0.689-0.144,0.814-0.815,0.766
			c-1.442-0.104-2.871-0.117-4.296,0.215c-2.877,0.666-4.598,2.457-5.114,5.387c-0.17,0.967-0.247,1.938-0.245,2.922
			c0.012,4.842,0.006,9.684,0.005,14.525c0,0.461,0.008,0.922-0.008,1.383c-0.021,0.615-0.13,0.756-0.675,0.758
			c-2.479,0.012-4.957,0.012-7.435,0c-0.547-0.002-0.652-0.141-0.677-0.758c-0.014-0.346-0.007-0.691-0.007-1.037
			c0-9.855-0.001-19.711,0-29.567c0.001-2.094-0.164-1.846,1.84-1.857c1.787-0.01,3.573-0.01,5.36,0.002
			c1.069,0.008,1.081,0.035,1.114,1.039C296.484,240.935,296.393,241.673,296.587,242.669z"/>
		<path fill-rule="evenodd" clip-rule="evenodd" fill="#424142" d="M232.08,255.771c0-4.848,0-9.696,0-14.542
			c0-0.404-0.009-0.809,0.005-1.213c0.027-0.771,0.091-0.846,0.938-0.85c2.366-0.01,4.731-0.008,7.097,0.004
			c0.593,0.002,0.721,0.137,0.748,0.689c0.021,0.402,0.011,0.807,0.011,1.211c0,9.809,0.002,19.62-0.001,29.428
			c0,2.115,0.17,1.883-1.812,1.891c-2.078,0.008-4.155,0.006-6.231-0.006c-0.6-0.004-0.721-0.131-0.745-0.689
			c-0.02-0.461-0.01-0.922-0.01-1.385C232.079,265.465,232.08,260.617,232.08,255.771z"/>
		<path fill-rule="evenodd" clip-rule="evenodd" fill="#444444" d="M236.455,235.273c-1.267,0-2.534,0.002-3.801-0.002
			c-0.339-0.002-0.512-0.201-0.558-0.525c-0.008-0.057-0.011-0.113-0.011-0.172c0-2.303-0.001-4.607,0.001-6.912
			c0-0.412,0.205-0.631,0.632-0.629c2.535,0.004,5.069,0.004,7.604,0.008c0.339,0,0.52,0.188,0.542,0.52
			c0.016,0.23,0.024,0.461,0.023,0.691c-0.002,2.131-0.003,4.262-0.013,6.393c-0.001,0.395-0.177,0.641-0.618,0.639
			c-1.267-0.006-2.535-0.004-3.802-0.004C236.455,235.277,236.455,235.275,236.455,235.273z"/>
	</g>
</g>
</svg>
