<?xml version="1.0" encoding="utf-8"?>
<!-- Generator: Adobe Illustrator 16.0.0, SVG Export Plug-In . SVG Version: 6.00 Build 0)  -->
<!DOCTYPE svg PUBLIC "-//W3C//DTD SVG 1.1//EN" "http://www.w3.org/Graphics/SVG/1.1/DTD/svg11.dtd">
<svg version="1.1" id="Layer_1" xmlns="http://www.w3.org/2000/svg" xmlns:xlink="http://www.w3.org/1999/xlink" x="0px" y="0px"
	 width="500px" height="500px" viewBox="0 0 500 500" enable-background="new 0 0 500 500" xml:space="preserve">
<g>
	<defs>
		<rect id="SVGID_1_" x="11.787" y="113.964" width="476.426" height="272.072"/>
	</defs>
	<clipPath id="SVGID_2_">
		<use xlink:href="#SVGID_1_"  overflow="visible"/>
	</clipPath>
	<path clip-path="url(#SVGID_2_)" fill="#066735" d="M103.614,236.021l-0.054,1.178c-0.133,0.093-0.253,0.22-0.34,0.354
		c-0.101,0.183-0.166,0.381-0.166,0.596c0,0.201,0.054,0.389,0.147,0.563c0.065,0.123,0.161,0.248,0.281,0.334l-0.055,1.104
		c-0.18,0.128-0.337,0.286-0.441,0.474c-0.133,0.215-0.207,0.462-0.207,0.729c0,0.239,0.06,0.476,0.166,0.688
		c0.093,0.166,0.229,0.321,0.381,0.44l-0.063,1.276c-0.568,0.315-1.335,0.778-2.045,1.331c-0.768,0.596-1.47,1.297-1.804,2.076
		c-0.321,0.729-0.408,1.464-0.375,2.098c0.011,0.204,0.032,0.394,0.063,0.574c-14.194,9.724-11.542,19.219-10.338,21.997H86.28
		c-0.628,0-1.139,0.512-1.139,1.14c0,0.629,0.511,1.141,1.139,1.141h1.137v6.2c-4.516,0.659-9.574,1.562-14.703,2.813
		c-0.104-3.377-0.209-6.729-0.293-9.768h0.919c0.547,0,0.987-0.443,0.987-0.988c0-0.547-0.443-0.987-0.987-0.987h-0.977
		c-0.168-6.007-0.267-10.412-0.201-10.692c0.22-0.917,1.575-1.945,1.575-1.945v-0.637h-2.196v-4.584h1.115
		c0.28,0,0.509-0.229,0.509-0.509s-0.229-0.51-0.509-0.51h-1.27c0.514-0.43,1.496-1.436,1.376-2.799
		c-0.158-1.779-4.402-6.483-4.693-6.802v-0.017l-0.008,0.008c-0.003-0.003-0.008-0.008-0.008-0.008v0.017
		c-0.289,0.318-4.536,5.025-4.693,6.802c-0.12,1.365,0.859,2.372,1.376,2.799h-1.295c-0.28,0-0.508,0.229-0.508,0.51
		s0.229,0.509,0.508,0.509h1.198v4.584h-2.003v0.637c0,0,1.355,1.028,1.57,1.945c0.065,0.28-0.032,4.686-0.201,10.692h-1.301
		c-0.546,0-0.987,0.443-0.987,0.987c0,0.548,0.444,0.988,0.987,0.988h1.241c-0.12,4.151-0.267,12.853-0.411,21.782
		c2.599,0.873,5.167,1.822,7.692,2.892c1.412,0.593,2.821,1.187,4.228,1.788v-9.626c0-0.813,0.327-1.601,0.912-2.169
		c0.411-0.397,0.748-0.678,0.748-0.678s0.345,0.28,0.748,0.678c0.585,0.566,0.912,1.355,0.912,2.169v11.054
		c0.838,0.365,1.673,0.731,2.506,1.104v-13.312c0-0.814,0.327-1.604,0.912-2.169c0.411-0.396,0.748-0.678,0.748-0.678
		s0.345,0.281,0.748,0.678c0.585,0.565,0.912,1.354,0.912,2.169v14.821c1.711,0.795,3.415,1.611,5.104,2.457v-17.132
		c0-1.482,0.594-2.917,1.665-3.959c0.749-0.729,1.374-1.243,1.374-1.243s0.626,0.515,1.366,1.243
		c1.075,1.042,1.673,2.474,1.673,3.959v20.436c0.767,0.457,1.529,0.925,2.277,1.414v-19.747c0-2.992,1.191-5.871,3.333-7.966
		c1.496-1.458,2.748-2.5,2.748-2.5s1.249,1.042,2.74,2.5c2.141,2.095,3.333,4.974,3.333,7.966v19.916
		c0.751-0.498,1.513-0.977,2.286-1.437v-20.582c0-1.482,0.593-2.917,1.665-3.959c0.748-0.729,1.374-1.243,1.374-1.243
		s0.625,0.515,1.374,1.243c1.067,1.042,1.665,2.474,1.665,3.959v17.257c1.82-0.919,3.66-1.798,5.507-2.657V289.13
		c0-0.814,0.326-1.595,0.912-2.16c0.411-0.397,0.749-0.684,0.749-0.684s0.345,0.286,0.748,0.684c0.584,0.565,0.911,1.346,0.911,2.16
		v13.148c0.833-0.37,1.668-0.739,2.506-1.102v-10.894c0-0.813,0.327-1.595,0.912-2.16c0.411-0.397,0.749-0.684,0.749-0.684
		s0.345,0.286,0.748,0.684c0.584,0.565,0.911,1.347,0.911,2.16v9.468c1.357-0.576,2.716-1.15,4.073-1.719
		c2.631-1.113,5.306-2.101,8.016-3.001c-0.145-8.892-0.292-17.538-0.411-21.674h0.917c0.547,0,0.988-0.443,0.988-0.988
		c0-0.546-0.443-0.986-0.988-0.986h-0.977c-0.168-6.008-0.266-10.413-0.201-10.693c0.215-0.916,1.57-1.944,1.57-1.944v-0.638h-2.19
		v-4.584h1.116c0.28,0,0.508-0.229,0.508-0.509s-0.229-0.509-0.508-0.509h-1.271c0.514-0.43,1.496-1.437,1.376-2.8
		c-0.157-1.779-4.402-6.483-4.693-6.801v-0.017c0,0-0.005,0.005-0.008,0.008l-0.008-0.008v0.017
		c-0.288,0.318-4.535,5.025-4.693,6.801c-0.12,1.366,0.859,2.372,1.376,2.8h-1.295c-0.28,0-0.509,0.229-0.509,0.509
		s0.229,0.509,0.509,0.509h1.197v4.584h-2.004v0.638c0,0,1.354,1.028,1.575,1.944c0.066,0.281-0.033,4.686-0.201,10.693h-1.303
		c-0.547,0-0.988,0.442-0.988,0.986c0,0.548,0.443,0.988,0.988,0.988h1.243c-0.084,3.085-0.187,6.481-0.294,9.903
		c-5.324-1.322-10.597-2.266-15.282-2.949v-6.2h1.137c0.629,0,1.14-0.512,1.14-1.14c0-0.629-0.511-1.141-1.14-1.141h-2.481
		c1.2-2.767,3.836-12.205-10.184-21.888c0.038-0.213,0.065-0.438,0.079-0.684c0.027-0.634-0.054-1.366-0.368-2.092l-0.004-0.005
		c-0.335-0.776-1.045-1.478-1.807-2.076c-0.715-0.552-1.483-1.018-2.054-1.331l-0.055-1.276c0.156-0.123,0.286-0.275,0.371-0.441
		c0.111-0.212,0.174-0.446,0.174-0.688c0-0.27-0.074-0.515-0.202-0.729c-0.114-0.188-0.267-0.345-0.454-0.473l-0.046-1.104
		c0.114-0.087,0.215-0.212,0.288-0.335c0.084-0.174,0.133-0.361,0.133-0.563c0-0.212-0.054-0.414-0.16-0.596
		c-0.084-0.133-0.199-0.261-0.344-0.354l-0.045-1.178l-0.607-8.87L103.614,236.021z M141.326,287.951v0.313v2.354h-1.083v-2.354
		v-0.313v-0.378c0-0.299,0.242-0.541,0.541-0.541c0.3,0,0.542,0.242,0.542,0.541V287.951z M141.326,278.23v0.31v2.354h-1.083v-2.354
		v-0.31v-0.378c0-0.3,0.242-0.542,0.541-0.542c0.3,0,0.542,0.242,0.542,0.542V278.23z M141.381,255.158v-0.31v-0.378
		c0-0.3,0.242-0.542,0.541-0.542c0.3,0,0.542,0.242,0.542,0.542v0.378v0.31v2.354h-1.083V255.158z M140.268,263.032
		c0.702-0.169,1.328,0.359,1.328,1.031v0.746v0.611v4.631h-2.127v-4.631v-0.611v-0.694
		C139.468,263.617,139.784,263.146,140.268,263.032 M138.456,255.137v-0.313v-0.378c0-0.3,0.242-0.542,0.541-0.542
		c0.3,0,0.542,0.242,0.542,0.542v0.378v0.313v2.354h-1.083V255.137z M65.976,255.137v-0.313v-0.378c0-0.3,0.243-0.542,0.542-0.542
		c0.299,0,0.542,0.242,0.542,0.542v0.378v0.313v2.354h-1.083V255.137z M68.844,287.951v0.313v2.354h-1.083v-2.354v-0.313v-0.378
		c0-0.299,0.242-0.541,0.542-0.541s0.542,0.242,0.542,0.541V287.951z M68.844,278.23v0.31v2.354h-1.083v-2.354v-0.31v-0.378
		c0-0.3,0.242-0.542,0.542-0.542s0.542,0.242,0.542,0.542V278.23z M69.115,264.81v0.611v4.631h-2.127v-4.631v-0.611v-0.694
		c0-0.498,0.316-0.966,0.8-1.083c0.702-0.169,1.327,0.359,1.327,1.031V264.81z M69.981,254.849v0.31v2.354h-1.083v-2.354v-0.31
		v-0.378c0-0.3,0.243-0.542,0.542-0.542c0.299,0,0.542,0.242,0.542,0.542V254.849z"/>
	<path clip-path="url(#SVGID_2_)" fill="#066735" d="M104.074,324.703l-21.88-21.881H51.249V271.88L29.368,250l21.881-21.88v-30.943
		h30.942l21.88-21.88l21.88,21.88h30.943v30.943L178.776,250l-21.879,21.88v30.942h-30.943L104.074,324.703z M60.134,293.939h25.738
		l18.199,18.199l18.199-18.199h25.738v-25.738L166.209,250l-18.198-18.199v-25.738h-25.738l-18.199-18.199l-18.202,18.196H60.134
		v25.738L41.936,250l18.199,18.199V293.939z"/>
	<path clip-path="url(#SVGID_2_)" fill-rule="evenodd" clip-rule="evenodd" fill="#0D6334" d="M108.536,224.79l1.807,3.741
		l-0.865-0.599l-1.29-2.971C108.299,224.898,108.427,224.853,108.536,224.79 M113.85,218.157l0.299,0.063l0.346,0.316l-0.408,0.109
		l-0.345-0.095C113.787,218.423,113.817,218.282,113.85,218.157 M113.646,218.864l1.698,0.533l0.408,0.566l-2.201-0.786
		C113.58,219.082,113.613,218.973,113.646,218.864 M113.376,219.618l3.018,1.211l0.612,0.865l-3.787-1.714
		C113.284,219.854,113.33,219.743,113.376,219.618 M113.031,220.388l4.794,2.436l0.707,0.99l-1.21-0.079l-4.62-2.767
		C112.827,220.78,112.921,220.575,113.031,220.388 M112.465,221.346l3.458,2.293l-1.053-0.079l-2.625-1.885
		C112.323,221.566,112.386,221.457,112.465,221.346 M111.961,222.039l1.84,1.461l-0.708-0.046l-1.352-1.148
		C111.82,222.21,111.899,222.132,111.961,222.039 M111.428,222.651l0.237,0.22l0.141,0.441l-0.408-0.109l-0.25-0.25
		C111.24,222.855,111.333,222.76,111.428,222.651 M110.83,223.248l1.194,1.335l0.063,0.691l-1.51-1.806
		C110.658,223.389,110.737,223.326,110.83,223.248 M110.217,223.767l1.964,2.576l0.095,1.053l-2.373-3.412
		C109.997,223.925,110.108,223.846,110.217,223.767 M109.526,224.238l2.876,4.557l0.108,1.211l-1.006-0.691l-2.514-4.731
		L109.526,224.238z M107.026,225.386l0.095,0.299l-0.109,0.457l-0.299-0.299l-0.095-0.345
		C106.76,225.464,106.9,225.418,107.026,225.386 M107.766,225.136l0.833,2.184l-0.582-0.392l-0.583-1.681
		C107.546,225.214,107.654,225.182,107.766,225.136 M106.21,225.59l0.362,1.744l-0.299,0.628l-0.392-2.31
		C105.989,225.639,106.099,225.606,106.21,225.59 M105.423,225.715l0.378,3.221l-0.44,0.958l-0.33-4.149
		C105.157,225.748,105.282,225.731,105.423,225.715 M104.574,225.78l0.188,5.393l-0.52,1.099l-0.52-1.099l0.188-5.393
		c0.095,0,0.204,0.016,0.315,0.016C104.338,225.794,104.466,225.78,104.574,225.78 M103.459,225.764l-0.329,4.132l-0.458-0.958
		l0.392-3.221C103.192,225.731,103.317,225.748,103.459,225.764 M102.61,225.652l-0.392,2.31l-0.299-0.628l0.361-1.744
		C102.39,225.623,102.501,225.639,102.61,225.652 M101.777,225.481l-0.078,0.33l-0.33,0.329l-0.095-0.408l0.109-0.362
		C101.511,225.402,101.637,225.448,101.777,225.481 M100.959,225.228l-0.582,1.698l-0.566,0.392l0.833-2.201
		C100.755,225.149,100.85,225.198,100.959,225.228 M100.222,224.932l-1.306,3l-0.865,0.599l1.806-3.757
		C99.985,224.82,100.096,224.882,100.222,224.932 M99.468,224.553l-2.576,4.761l-1.007,0.691l0.109-1.211l2.909-4.574
		C99.09,224.333,99.278,224.441,99.468,224.553 M98.524,223.955l-2.405,3.441l0.095-1.053l1.997-2.609
		C98.32,223.813,98.413,223.892,98.524,223.955 M97.847,223.438l-1.541,1.839l0.063-0.691l1.228-1.369
		C97.675,223.296,97.771,223.375,97.847,223.438 M97.218,222.855l-0.267,0.267l-0.441,0.125l0.125-0.408l0.299-0.283
		C97.03,222.651,97.125,222.76,97.218,222.855 M96.685,222.273l-1.382,1.178l-0.69,0.046l1.869-1.494
		C96.543,222.102,96.605,222.194,96.685,222.273 M96.197,221.645l-2.672,1.918l-1.052,0.079l3.504-2.31
		C96.04,221.424,96.119,221.536,96.197,221.645 M95.741,220.938l-4.669,2.797l-1.21,0.079l0.707-0.99l4.841-2.468
		C95.521,220.562,95.616,220.75,95.741,220.938 M95.224,219.947l-3.82,1.744l0.612-0.865l3.05-1.228
		C95.112,219.713,95.175,219.838,95.224,219.947 M94.908,219.161l-2.263,0.803l0.408-0.566l1.743-0.55
		C94.829,218.957,94.878,219.052,94.908,219.161 M94.72,218.549l-0.378,0.108l-0.457-0.108l0.316-0.299l0.408-0.096
		C94.641,218.298,94.672,218.423,94.72,218.549 M98.682,217.025l-5.863,1.194l-0.629-0.299l6.459-1.085
		C98.665,216.897,98.665,216.962,98.682,217.025 M98.619,216.568l-7.403,0.895l-0.958-0.457l8.332-0.661
		C98.603,216.426,98.603,216.489,98.619,216.568 M98.57,216.097l-9.587,0.316l-1.1-0.52l1.1-0.52l9.604,0.33
		c-0.017,0.079-0.017,0.141-0.017,0.22V216.097z M98.603,215.453l-8.347-0.675l0.957-0.441l7.403,0.881
		C98.619,215.294,98.603,215.374,98.603,215.453 M98.665,214.965l-6.475-1.085l0.629-0.299l5.879,1.194
		C98.682,214.84,98.665,214.903,98.665,214.965 M94.625,213.66l-0.391-0.079l-0.346-0.315l0.408-0.109l0.424,0.109
		C94.688,213.393,94.658,213.534,94.625,213.66 M94.829,212.922l-1.682-0.534l-0.471-0.566l2.247,0.803
		C94.892,212.718,94.862,212.811,94.829,212.922 M95.096,212.182l-3.047-1.241l-0.613-0.849l3.82,1.728
		C95.19,211.948,95.145,212.073,95.096,212.182 M95.444,211.428l-4.827-2.484l-0.723-0.99l1.227,0.095l4.652,2.797
		C95.662,211.037,95.553,211.225,95.444,211.428 M96.01,210.471l-3.491-2.326l1.053,0.063l2.671,1.935
		C96.165,210.25,96.086,210.359,96.01,210.471 M96.51,209.777l-1.869-1.494l0.708,0.046l1.382,1.178
		C96.652,209.605,96.589,209.685,96.51,209.777 M96.968,209.26l-0.316-0.266l-0.142-0.457l0.424,0.108l0.316,0.316
		C97.155,209.056,97.063,209.165,96.968,209.26 M97.597,208.631l-1.228-1.352l-0.063-0.691l1.541,1.823
		C97.771,208.474,97.675,208.553,97.597,208.631 M98.208,208.112l-1.997-2.593l-0.108-1.053l2.421,3.412
		C98.413,207.954,98.303,208.033,98.208,208.112 M98.902,207.625l-2.938-4.557l-0.109-1.21l1.006,0.691l2.609,4.748
		C99.278,207.388,99.09,207.514,98.902,207.625 M99.859,207.076l-1.839-3.741l0.882,0.582l1.319,3.001
		C100.096,206.964,99.985,207.026,99.859,207.076 M100.646,206.73l-0.849-2.201l0.566,0.392l0.599,1.698
		C100.85,206.651,100.755,206.697,100.646,206.73 M101.37,206.477l-0.109-0.378l0.109-0.44l0.299,0.299l0.108,0.408
		C101.637,206.398,101.511,206.447,101.37,206.477 M102.219,206.272l-0.346-1.76l0.299-0.628l0.378,2.326
		C102.437,206.227,102.327,206.24,102.219,206.272 M103.019,206.131l-0.392-3.222l0.441-0.958l0.33,4.149
		C103.271,206.099,103.144,206.115,103.019,206.131 M103.851,206.069l-0.188-5.393l0.52-1.099l0.52,1.099l-0.174,5.393
		c-0.109,0-0.205-0.017-0.299-0.017C104.104,206.052,103.979,206.069,103.851,206.069 M104.969,206.085l0.33-4.133l0.458,0.958
		l-0.393,3.222C105.235,206.115,105.111,206.099,104.969,206.085 M105.818,206.194l0.392-2.31l0.3,0.628l-0.346,1.744
		C106.052,206.227,105.943,206.21,105.818,206.194 M106.572,206.335l0.095-0.345l0.315-0.346l0.109,0.408l-0.109,0.392
		C106.838,206.414,106.713,206.381,106.572,206.335 M107.437,206.602l0.599-1.682l0.582-0.392l-0.849,2.185
		C107.654,206.665,107.546,206.635,107.437,206.602 M108.191,206.885l1.319-2.971l0.865-0.582l-1.839,3.725
		C108.427,206.997,108.299,206.947,108.191,206.885 M108.944,207.263l2.593-4.715l1.006-0.691l-0.108,1.21l-2.909,4.544
		C109.339,207.483,109.132,207.372,108.944,207.263 M109.904,207.861l2.389-3.395l-0.095,1.053l-1.981,2.563
		C110.108,208.003,109.997,207.924,109.904,207.861 M110.579,208.378l1.51-1.793l-0.062,0.691l-1.194,1.32
		C110.753,208.52,110.658,208.441,110.579,208.378 M111.083,208.835l0.25-0.25l0.441-0.125l-0.109,0.408l-0.283,0.267
		C111.287,209.04,111.191,208.928,111.083,208.835 M111.694,209.494l1.369-1.165l0.69-0.046l-1.839,1.461
		C111.853,209.668,111.774,209.573,111.694,209.494 M112.198,210.109l2.642-1.902l1.037-0.063l-3.458,2.294
		C112.355,210.329,112.277,210.218,112.198,210.109 M112.669,210.816l4.623-2.767l1.21-0.095l-0.708,0.99l-4.793,2.452
		C112.889,211.208,112.781,211.004,112.669,210.816 M113.188,211.807l3.773-1.714l-0.612,0.849l-2.988,1.227
		C113.297,212.041,113.251,211.932,113.188,211.807 M113.518,212.59l2.2-0.77l-0.457,0.566l-1.635,0.52
		C113.597,212.797,113.55,212.702,113.518,212.59 M113.708,213.156l0.316-0.095l0.457,0.108l-0.316,0.3l-0.345,0.079
		C113.787,213.426,113.738,213.284,113.708,213.156 M109.763,214.775l5.879-1.194l0.629,0.299l-6.476,1.085
		C109.793,214.903,109.776,214.84,109.763,214.775 M117.245,214.337l0.958,0.441l-8.347,0.675c0-0.079-0.017-0.158-0.017-0.237
		L117.245,214.337z M109.839,216.568l7.403,0.895l0.958-0.457l-8.331-0.661C109.856,216.426,109.856,216.489,109.839,216.568
		 M109.776,217.025l5.863,1.194l0.628-0.299l-6.458-1.085C109.793,216.897,109.793,216.962,109.776,217.025 M119.476,215.374
		l1.1,0.52l-1.1,0.52l-9.587-0.316v-0.174c0-0.079,0-0.141-0.017-0.22L119.476,215.374z"/>
	<path clip-path="url(#SVGID_2_)" fill-rule="evenodd" clip-rule="evenodd" fill="#0D6334" d="M109.651,214.321l0.583-0.158
		c0.017,0.079,0.046,0.158,0.062,0.25l-0.582,0.142C109.697,214.478,109.668,214.399,109.651,214.321 M98.774,217.417l-0.583,0.158
		c-0.017-0.079-0.033-0.158-0.063-0.25l0.582-0.142C98.744,217.259,98.761,217.337,98.774,217.417 M109.747,217.196l0.583,0.125
		c-0.033,0.095-0.046,0.174-0.063,0.267l-0.582-0.174C109.697,217.354,109.714,217.275,109.747,217.196 M109.622,217.604
		l0.583,0.174c-0.017,0.063-0.046,0.142-0.063,0.204l-0.566-0.204C109.589,217.716,109.605,217.653,109.622,217.604 M109.48,218.029
		l0.55,0.22c-0.033,0.079-0.063,0.158-0.095,0.237l-0.55-0.25C109.415,218.17,109.447,218.091,109.48,218.029 M109.273,218.47
		l0.533,0.267c-0.063,0.125-0.142,0.25-0.205,0.378l-0.519-0.315C109.148,218.69,109.21,218.581,109.273,218.47 M108.944,219.02
		l0.503,0.329c-0.046,0.079-0.095,0.142-0.141,0.204l-0.487-0.345C108.865,219.147,108.914,219.082,108.944,219.02 M108.661,219.43
		l0.471,0.362c-0.046,0.063-0.096,0.109-0.142,0.174l-0.457-0.392C108.582,219.522,108.631,219.477,108.661,219.43 M108.348,219.775
		l0.441,0.408c-0.063,0.079-0.108,0.142-0.174,0.188l-0.424-0.425C108.237,219.901,108.299,219.838,108.348,219.775
		 M108.017,220.121l0.392,0.441c-0.046,0.046-0.109,0.095-0.158,0.141l-0.392-0.457C107.924,220.2,107.97,220.151,108.017,220.121
		 M107.654,220.404l0.362,0.487c-0.063,0.046-0.125,0.095-0.188,0.141l-0.346-0.487C107.546,220.497,107.608,220.45,107.654,220.404
		 M107.263,220.687l0.329,0.503c-0.125,0.079-0.25,0.158-0.378,0.22l-0.283-0.533C107.042,220.812,107.154,220.75,107.263,220.687
		 M106.713,221l0.25,0.533c-0.079,0.046-0.142,0.079-0.22,0.109l-0.237-0.55C106.572,221.063,106.634,221.032,106.713,221
		 M106.256,221.19l0.221,0.566c-0.079,0.033-0.142,0.046-0.204,0.079l-0.205-0.566C106.131,221.236,106.193,221.22,106.256,221.19
		 M105.818,221.345l0.174,0.566c-0.079,0.033-0.174,0.046-0.25,0.079l-0.142-0.582C105.661,221.395,105.739,221.362,105.818,221.345
		 M105.361,221.457l0.124,0.582c-0.062,0.017-0.141,0.033-0.204,0.046l-0.108-0.599
		C105.235,221.487,105.298,221.473,105.361,221.457 M104.92,221.536l0.063,0.599c-0.079,0-0.158,0.017-0.25,0.017l-0.046-0.599
		C104.762,221.549,104.841,221.536,104.92,221.536 M104.433,221.566l0.016,0.598c-0.063,0-0.141,0.017-0.22,0.017
		c-0.063,0-0.126-0.017-0.205-0.017l0.033-0.598h0.174H104.433z M103.788,221.549l-0.046,0.599c-0.079,0-0.158-0.016-0.25-0.016
		l0.079-0.599C103.647,221.536,103.709,221.549,103.788,221.549 M103.302,221.503l-0.096,0.582
		c-0.079-0.016-0.142-0.016-0.204-0.033l0.108-0.599C103.176,221.473,103.239,221.487,103.302,221.503 M102.798,221.395
		l-0.142,0.582c-0.079-0.033-0.174-0.046-0.25-0.079l0.175-0.566C102.656,221.345,102.736,221.378,102.798,221.395 M102.327,221.236
		l-0.188,0.583c-0.062-0.033-0.141-0.063-0.204-0.079l0.22-0.566C102.202,221.204,102.265,221.22,102.327,221.236 M101.903,221.079
		l-0.237,0.55c-0.079-0.046-0.158-0.079-0.22-0.109l0.25-0.55C101.777,221.016,101.84,221.049,101.903,221.079 M101.478,220.858
		l-0.283,0.52c-0.125-0.063-0.25-0.142-0.362-0.22l0.316-0.503C101.258,220.733,101.37,220.796,101.478,220.858 M100.945,220.513
		L100.6,221c-0.063-0.046-0.142-0.095-0.205-0.142l0.362-0.487C100.817,220.42,100.88,220.466,100.945,220.513 M100.551,220.214
		l-0.378,0.457c-0.062-0.046-0.109-0.095-0.158-0.141l0.392-0.441C100.456,220.137,100.504,220.167,100.551,220.214
		 M100.206,219.884l-0.425,0.424l-0.187-0.188l0.441-0.408L100.206,219.884z M99.89,219.539l-0.458,0.392
		c-0.046-0.063-0.095-0.109-0.125-0.174l0.458-0.362C99.813,219.444,99.859,219.493,99.89,219.539 M99.609,219.177l-0.487,0.362
		c-0.046-0.079-0.079-0.142-0.125-0.204l0.487-0.33C99.53,219.052,99.577,219.114,99.609,219.177 M99.356,218.785l-0.52,0.299
		c-0.062-0.109-0.141-0.237-0.204-0.362l0.533-0.283C99.231,218.565,99.294,218.673,99.356,218.785 M99.057,218.219l-0.533,0.237
		c-0.046-0.063-0.079-0.142-0.109-0.221l0.566-0.22C99.011,218.078,99.027,218.141,99.057,218.219 M98.886,217.762l-0.566,0.204
		c-0.033-0.079-0.046-0.142-0.063-0.204l0.566-0.188C98.836,217.637,98.869,217.7,98.886,217.762 M98.728,214.62l-0.582-0.125
		c0.016-0.095,0.033-0.174,0.063-0.25l0.583,0.158C98.761,214.478,98.744,214.541,98.728,214.62 M98.853,214.195l-0.582-0.174
		c0.033-0.079,0.047-0.141,0.063-0.204l0.566,0.204C98.886,214.084,98.869,214.133,98.853,214.195 M98.994,213.787l-0.549-0.237
		c0.033-0.079,0.063-0.158,0.096-0.22l0.549,0.25C99.057,213.646,99.027,213.708,98.994,213.787 M99.199,213.346l-0.534-0.283
		c0.063-0.109,0.142-0.237,0.204-0.362l0.52,0.315C99.326,213.126,99.261,213.235,99.199,213.346 M99.53,212.797l-0.503-0.329
		c0.046-0.063,0.095-0.142,0.141-0.204l0.487,0.345C99.609,212.669,99.56,212.731,99.53,212.797 M99.813,212.402l-0.471-0.378
		c0.046-0.046,0.095-0.109,0.142-0.158l0.457,0.392C99.89,212.307,99.859,212.356,99.813,212.402 M100.063,212.103l-0.44-0.392
		c0.063-0.063,0.108-0.125,0.174-0.188l0.425,0.424C100.172,211.994,100.11,212.057,100.063,212.103 M100.426,211.741l-0.392-0.441
		c0.046-0.046,0.095-0.095,0.157-0.142l0.378,0.458C100.521,211.665,100.472,211.711,100.426,211.741 M100.771,211.461l-0.362-0.487
		c0.063-0.046,0.142-0.095,0.204-0.142l0.346,0.487C100.896,211.366,100.833,211.412,100.771,211.461 M101.163,211.178l-0.316-0.503
		c0.108-0.079,0.237-0.158,0.362-0.22l0.283,0.533C101.383,211.037,101.274,211.113,101.163,211.178 M101.729,210.862l-0.267-0.533
		c0.079-0.046,0.142-0.079,0.221-0.108l0.25,0.549C101.856,210.8,101.794,210.83,101.729,210.862 M102.17,210.658l-0.221-0.549
		c0.062-0.033,0.142-0.046,0.204-0.079l0.188,0.566C102.294,210.612,102.232,210.642,102.17,210.658 M102.577,210.517l-0.174-0.566
		c0.095-0.033,0.174-0.046,0.25-0.079l0.158,0.583C102.736,210.471,102.656,210.5,102.577,210.517 M103.064,210.392l-0.125-0.583
		c0.079-0.017,0.142-0.033,0.22-0.046l0.095,0.599C103.192,210.375,103.13,210.375,103.064,210.392 M103.522,210.313l-0.08-0.583
		c0.08-0.016,0.175-0.033,0.251-0.033l0.046,0.599C103.663,210.296,103.584,210.313,103.522,210.313 M103.992,210.28l-0.017-0.599
		c0.079,0,0.175-0.016,0.251-0.016c0.063,0,0.108,0.016,0.174,0.016l-0.017,0.599h-0.158H103.992z M104.637,210.296l0.047-0.599
		c0.079,0,0.174,0,0.25,0.017l-0.079,0.599C104.795,210.296,104.716,210.296,104.637,210.296 M105.124,210.343l0.095-0.583
		c0.079,0,0.142,0.017,0.221,0.033l-0.125,0.583C105.252,210.375,105.187,210.359,105.124,210.343 M105.548,210.438l0.158-0.583
		c0.079,0.017,0.158,0.033,0.25,0.063l-0.174,0.566C105.707,210.471,105.628,210.455,105.548,210.438 M106.052,210.58l0.204-0.566
		c0.063,0.016,0.125,0.046,0.188,0.063l-0.205,0.566C106.177,210.626,106.114,210.596,106.052,210.58 M106.477,210.737l0.25-0.533
		c0.079,0.033,0.142,0.063,0.221,0.095l-0.267,0.533C106.618,210.8,106.555,210.767,106.477,210.737 M106.917,210.958l0.283-0.534
		c0.126,0.079,0.251,0.142,0.378,0.221l-0.329,0.503C107.138,211.083,107.026,211.021,106.917,210.958 M107.466,211.287l0.346-0.487
		c0.063,0.046,0.125,0.095,0.188,0.158l-0.362,0.47C107.578,211.382,107.514,211.333,107.466,211.287 M107.845,211.586l0.392-0.458
		c0.063,0.046,0.109,0.096,0.158,0.142l-0.392,0.441C107.954,211.679,107.892,211.632,107.845,211.586 M108.144,211.853l0.425-0.425
		c0.063,0.063,0.125,0.125,0.174,0.188l-0.424,0.408C108.253,211.962,108.207,211.916,108.144,211.853 M108.503,212.231l0.458-0.392
		c0.046,0.063,0.095,0.109,0.125,0.158l-0.457,0.378C108.582,212.324,108.536,212.277,108.503,212.231 M108.786,212.59l0.487-0.362
		c0.046,0.079,0.095,0.141,0.141,0.204l-0.503,0.33C108.865,212.702,108.835,212.639,108.786,212.59 M109.056,212.985l0.52-0.316
		c0.063,0.125,0.142,0.25,0.204,0.378l-0.533,0.267C109.181,213.205,109.119,213.094,109.056,212.985 M109.352,213.55l0.549-0.25
		c0.033,0.079,0.063,0.158,0.095,0.237l-0.549,0.22C109.415,213.692,109.385,213.613,109.352,213.55 M109.542,214.005l0.566-0.204
		c0.033,0.063,0.046,0.125,0.063,0.188l-0.566,0.188C109.589,214.116,109.573,214.07,109.542,214.005"/>
	<path clip-path="url(#SVGID_2_)" fill-rule="evenodd" clip-rule="evenodd" fill="#0D6334" d="M104.686,220.2
		c-0.157,0.017-0.267-0.016-0.345-0.109c0.017-0.063,0.079-0.108,0.125-0.108C104.545,220.009,104.686,220.151,104.686,220.2"/>
	<path clip-path="url(#SVGID_2_)" fill-rule="evenodd" clip-rule="evenodd" fill="#0D6334" d="M103.522,220.088
		c-0.267,0.158-0.691,0.158-0.928,0.204c0.109,0.033,0.409,0.079,0.599,0.046c0.109-0.016,0.25-0.046,0.345-0.095
		c0.159-0.109,0.392-0.33,0.409-0.33c0.125,0.109,0.424,0.316,0.549,0.096c0.046-0.096,0.017-0.125,0.017-0.204
		c0-0.046-0.017-0.142-0.033-0.188c-0.017-0.063-0.046-0.125-0.109-0.158c-0.108-0.033-0.141-0.033-0.25,0.079
		c-0.063,0.063-0.125,0.141-0.174,0.22C103.837,219.901,103.647,220.01,103.522,220.088 M107.059,218.141
		c-0.047,0.063-0.109,0.158-0.125,0.22c-0.079,0.142-0.095,0.33-0.079,0.487c0.017,0.125,0.079,0.299,0.188,0.346
		c0.141,0.063,0.345,0.017,0.471-0.046c0.25-0.142,0.503-0.299,0.598-0.565l-0.204,0.157l-0.016-0.016
		c0.016,0.046-0.283,0.22-0.346,0.25c-0.109,0.063-0.267,0.109-0.408,0.032c-0.267-0.158-0.158-0.44-0.125-0.533
		c0.016-0.095,0.204-0.346,0.346-0.409c0-0.108,0.016-0.236-0.158-0.158c-0.079,0.033-0.108,0.047-0.173,0.079
		c-0.362,0.174-0.52,0.174-0.471,0.315l0.063,0.142C106.665,218.312,106.964,218.203,107.059,218.141 M102.453,212.356l-0.063,0.299
		l1.319-1.085l0.063-0.315L102.453,212.356z M101.383,213.363c0,0.017,0.487,0.283,0.533,0.315l0.283-0.52
		c-0.032,0-0.267-0.125-0.315-0.158c-0.095-0.046-0.142-0.079-0.236-0.109C101.62,212.938,101.383,213.314,101.383,213.363
		 M100.597,213.426c0,0.063,0.47,0.299,0.52,0.315c0.016-0.033,0.141-0.267,0.141-0.283c0.047-0.046,0.125-0.22,0.109-0.25
		c0-0.016-0.47-0.299-0.52-0.299c-0.016,0-0.109,0.237-0.142,0.283C100.676,213.221,100.583,213.409,100.597,213.426
		 M103.476,212.748l-0.046,0.299l1.619-1.29l0.063-0.315L103.476,212.748z M104.449,213.251c-0.108-0.046-0.299-0.283-0.283-0.378
		c-0.125,0.063-0.158,0.109-0.109,0.204c0.125,0.25,0.205,0.378,0.362,0.408c0.221,0.046,0.346-0.22,0.346-0.345
		c0.158,0.141,0.299,0.046,0.346-0.079c0.032-0.095,0.045-0.188,0.032-0.25c-0.032-0.142-0.175-0.299-0.22-0.362
		c-0.047,0.033-0.095,0.063-0.08,0.142c0,0.063,0.046,0.125,0.125,0.204c0.047,0.046,0.063,0.046,0.095,0.109
		c-0.045,0.046-0.157,0.109-0.188,0.109c-0.108,0-0.25-0.33-0.25-0.316c-0.016-0.016-0.046-0.016-0.046-0.016
		c-0.033,0.032-0.046,0.063-0.063,0.109c0,0.109,0.108,0.25,0.174,0.345C104.637,213.205,104.545,213.298,104.449,213.251
		 M105.377,212.356c0.017,0.063,0.125,0.188,0.25,0.236c-0.063,0.283-0.25,0.583-0.362,0.787c-0.125,0.188-0.237,0.315-0.25,0.329
		c-0.063,0.063-0.267,0.267-0.299,0.329c0.045-0.017,0.283-0.174,0.378-0.283c0.22-0.237,0.598-0.74,0.674-1.116
		c0.109,0.033,0.095,0.033,0.158,0.109c0.032-0.109,0.079-0.188,0.045-0.299c0-0.046-0.062-0.063-0.108-0.095
		c0.017-0.109,0.032-0.142,0.032-0.299c0-0.204-0.079-0.471-0.204-0.503c-0.267,0.033-0.362,0.392-0.378,0.55
		C105.298,212.245,105.345,212.277,105.377,212.356 M105.723,212.324c-0.079-0.033-0.109-0.046-0.188-0.079
		c-0.079-0.046-0.141-0.046-0.125-0.142c0.016-0.125,0.236-0.266,0.299-0.283c0.063,0.017,0.063,0.109,0.063,0.204
		C105.769,212.103,105.753,212.198,105.723,212.324 M101.416,214.84c0.062-0.204,0.299-0.267,0.424-0.109
		c0.063,0.22,0.08,0.378,0.188,0.599c0.125,0.237,0.599,0.533,1.227,0.283c0.047,0.236,0.096,0.487,0.125,0.739
		c0.017,0.188,0,0.441-0.079,0.645c-0.079,0.221-0.409,0.628-0.74,0.991c-0.125,0.141-0.425,0.378-0.833,0.457
		c-0.33,0.046-0.629-0.033-0.833-0.22c-0.188-0.158-0.316-0.424-0.346-0.708c-0.017-0.158-0.033-0.316-0.063-0.346
		c-0.079,0.174-0.174,1.165,0.174,1.586c0.158,0.188,0.504,0.441,0.816,0.441c0.55,0,1.037-0.457,1.448-1.132
		c0.25-0.408,0.487-0.881,0.55-0.974c0.142,0.881,0.329,1.493,1.037,2.105c0.457,0.392,1.178,0.816,1.807,0.865
		c0.046-0.188,0.141-0.566,0.174-0.74c-0.095,0.032-1.165-0.33-1.165-0.612c0-0.362,1.086-0.833,1.415-0.99
		c0.583-0.283,1.227-0.503,1.855-0.691c0.096-0.033,0.346-0.645,0.362-0.741c-0.471-0.016-0.958-0.046-1.447-0.079
		c-0.692-0.046-2.563-0.125-2.563-0.188c0-0.283,1.619-1.178,1.76-1.257c0.063,0.125,0.142,0.283,0.174,0.345
		c0.016,0.047,0.079,0.267,0.108,0.284c0.033-0.047,0.033-0.237,0-0.299c-0.017-0.063-0.079-0.316-0.125-0.408
		c0.267-0.142,0.487-0.283,0.646-0.392c0.236-0.142,0.345-0.361,0.361-0.628c0-0.174,0.017-0.55-0.109-0.662
		c-0.345-0.315-0.927-0.566-1.178-0.628c-0.221-0.046-0.457,0.109-0.457,0.378c-0.016,0.142-0.016,0.283-0.016,0.424
		c0.016,0.141,0.032,0.299,0.062,0.457c0.062,0.188,0.158,0.329,0.237,0.52c-0.741,0.471-1.447,0.958-2.185,1.839
		c-0.079,0.079-0.221,0.598-0.237,0.786c0.392,0.046,0.803,0.046,1.228,0.079c0.533,0.046,1.085,0.108,1.619,0.125
		c-0.471,0.237-0.944,0.424-1.306,0.77c-0.283,0.25-0.362,0.471-0.392,0.849l-0.017,0.204c-0.723-0.315-1.241-1.132-1.336-1.918
		c-0.063-0.471-0.079-1.053-0.141-1.431l-0.017-0.063c0.142-0.125,0.267-0.315,0.316-0.44c0.063-0.188,0.079-0.283,0.079-0.471
		c-0.016-0.204-0.22-0.582-0.44-0.786l-0.125,0.52c0.125,0.046,0.267,0.3,0.346,0.52c-0.079,0.109-0.174,0.205-0.25,0.267
		c-0.095-0.362-0.204-0.691-0.362-1.086c-0.017-0.046-0.25-0.503-0.345-0.52l-0.174,0.582c0.251,0.55,0.408,0.928,0.487,1.241
		c-0.032,0.017-0.046,0.017-0.079,0.033c-0.33,0.096-0.708,0.033-0.928-0.267c-0.109-0.141-0.142-0.267-0.174-0.424
		c-0.016-0.125-0.046-0.378-0.109-0.424c-0.188-0.046-0.299,0.095-0.329,0.158c-0.125,0.25-0.441,0.803-0.503,0.912
		c-0.175,0.25-0.316,0.362-0.583,0.424c-0.267,0.046-0.44-0.267-0.52-0.457c-0.033-0.079-0.096-0.316-0.109-0.362
		c-0.033,0.188-0.016,0.533,0.063,0.786c0.063,0.188,0.204,0.441,0.392,0.503C100.771,216.255,101.242,215.327,101.416,214.84
		 M106.367,213.613c-0.045-0.142-0.095-0.283-0.095-0.315c0.016-0.096,0.063-0.125,0.221-0.125c0.345-0.016,0.77,0.079,1.022,0.316
		c-0.033,0.046-0.236,0.174-0.457,0.315c-0.221,0.125-0.425,0.25-0.487,0.25C106.477,213.896,106.381,213.629,106.367,213.613
		 M104.354,215.012l-0.125,0.378l1.572-1.194l0.079-0.362L104.354,215.012z M102.437,216.489c0-0.016-0.55-0.188-0.612-0.188
		l0.016,0.016l-0.204,0.55l0.612,0.188C102.249,216.992,102.437,216.538,102.437,216.489 M103.239,216.223
		c-0.079-0.033-0.503-0.188-0.566-0.174c-0.046,0-0.204,0.487-0.204,0.549c0.032,0,0.25,0.079,0.315,0.095
		c0.08,0.017,0.25,0.096,0.283,0.063c0.017-0.063,0.046-0.174,0.095-0.283C103.176,216.41,103.255,216.239,103.239,216.223
		 M101.949,219.743c-0.017,0.125-0.033,0.25-0.046,0.392c0.566-0.424,1.099-0.833,1.681-1.241l0.033-0.378
		C103.035,218.927,102.469,219.365,101.949,219.743"/>
	<path clip-path="url(#SVGID_2_)" fill-rule="evenodd" clip-rule="evenodd" fill="#0D6334" d="M95.066,218.344l0.016,0.095
		l0.362,0.237l0.079,0.079l0.109-0.033v-0.016c-0.079-0.033-0.125-0.063-0.237-0.125C95.161,218.423,95.083,218.361,95.066,218.344
		 M101.495,222.793l0.063,0.063l0.424-0.016l0.109,0.016l0.079-0.079l-0.017-0.016c-0.079,0.016-0.142,0.033-0.25,0.033
		C101.62,222.793,101.511,222.776,101.495,222.793 M102.893,223.247l0.095,0.033l0.378-0.204l0.095-0.033l0.032-0.125h-0.019
		c-0.063,0.046-0.109,0.095-0.22,0.142C103.002,223.201,102.91,223.234,102.893,223.247 M102.91,223.405l0.079,0.032l0.378-0.204
		l0.109-0.033l0.033-0.109l-0.017-0.017c-0.062,0.063-0.125,0.095-0.221,0.158C103.019,223.359,102.924,223.389,102.91,223.405
		 M104.009,223.28l0.079,0.017l0.378-0.204l0.095-0.033l0.046-0.109l-0.017-0.017c-0.079,0.063-0.125,0.096-0.22,0.158
		C104.12,223.217,104.025,223.264,104.009,223.28 M104.7,223.313l0.095,0.016l0.391-0.345l0.096-0.046v-0.125h-0.016
		c-0.046,0.063-0.142,0.141-0.237,0.22C104.828,223.217,104.7,223.296,104.7,223.313 M106.934,222.668h0.095l0.33-0.408l0.079-0.079
		l-0.016-0.109h-0.017c-0.046,0.079-0.125,0.174-0.188,0.267C107.042,222.556,106.947,222.651,106.934,222.668 M107.766,222.257
		l0.08-0.033l0.236-0.378l0.079-0.079l-0.032-0.125h-0.016c-0.033,0.095-0.095,0.188-0.158,0.299
		C107.796,222.181,107.766,222.227,107.766,222.257 M110.596,219.539l0.063-0.063l0.046-0.52l0.033-0.109l-0.08-0.079h-0.016
		c0.016,0.095,0,0.204-0.017,0.329C110.612,219.381,110.579,219.506,110.596,219.539 M111.066,218.627l0.063-0.063l0.047-0.52
		l0.032-0.095l-0.079-0.095l-0.016,0.016c0.016,0.079,0,0.204-0.017,0.329C111.083,218.486,111.05,218.611,111.066,218.627
		 M109.369,221.22l0.079-0.033l0.237-0.582l0.046-0.109l0.046-0.063l-0.063-0.142h-0.016
		C109.651,220.529,109.306,221.236,109.369,221.22 M98.461,219.21l-0.095-0.033c-0.063,0.174-0.251,0.3-0.362,0.33
		c0.079,0.033,0.204,0,0.316-0.095C98.383,219.365,98.445,219.272,98.461,219.21 M104.512,223.971c-0.046,0.016-0.095,0-0.109-0.017
		c-0.033-0.033-0.033-0.046-0.046-0.095c-0.033,0.016-0.033,0.079-0.017,0.125c0,0.017-0.079,0.033-0.125,0
		c-0.063-0.032-0.046-0.109-0.046-0.141c-0.033,0.032-0.046,0.063-0.033,0.109c0,0.125,0.063,0.141,0.095,0.157
		c0.063,0.017,0.142,0.017,0.159-0.046c0.046,0.033,0.095,0.033,0.141,0.016c0.016,0,0.033-0.063,0.033-0.108
		c0.016-0.046,0.016-0.142-0.079-0.188c-0.017,0.046-0.017,0.033-0.017,0.079C104.466,223.875,104.529,223.925,104.512,223.971
		 M107.404,222.76c-0.046,0.033-0.095,0.046-0.109,0.033c-0.032-0.017-0.046-0.033-0.095-0.079
		c-0.016,0.033,0.017,0.095,0.063,0.125c-0.016,0.032-0.063,0.063-0.125,0.063c-0.079-0.017-0.095-0.096-0.109-0.109
		c0,0.016,0,0.063,0.017,0.095c0.063,0.125,0.125,0.108,0.158,0.108c0.063,0,0.125-0.032,0.125-0.095c0.046,0,0.095,0,0.125-0.046
		c0.016,0,0.016-0.063,0-0.109c-0.017-0.046-0.046-0.142-0.142-0.142c0,0.046-0.017,0.033,0,0.079
		C107.326,222.681,107.388,222.714,107.404,222.76 M97.925,219.775c-0.033-0.033-0.046-0.095-0.033-0.109
		c0-0.033,0.016-0.046,0.063-0.095c-0.032-0.016-0.095,0.017-0.125,0.063c-0.017,0-0.063-0.063-0.046-0.109
		c0-0.079,0.079-0.108,0.096-0.108c-0.033-0.017-0.063-0.017-0.096,0.016c-0.125,0.063-0.108,0.125-0.108,0.158
		c0.016,0.063,0.045,0.125,0.108,0.125c0,0.046,0.017,0.095,0.046,0.125c0.017,0.016,0.079,0,0.125-0.016
		c0.032-0.017,0.125-0.063,0.125-0.158c-0.046,0-0.033-0.016-0.079,0.017C97.987,219.697,97.975,219.759,97.925,219.775
		 M100.222,221.881c0.032-0.033,0.063-0.046,0.095-0.033c0.046,0,0.141,0.033,0.188,0.063c-0.033,0.063-0.063,0.079-0.109,0.096
		c-0.062,0.016-0.125,0-0.174,0.016c0.032,0.016,0.125,0.033,0.188,0c0.079-0.033,0.096-0.046,0.125-0.109l0.047-0.095
		c-0.079-0.033-0.142-0.046-0.204-0.046C100.331,221.77,100.222,221.849,100.222,221.881 M110.155,219.775
		c0-0.033,0-0.063,0.032-0.095c0.032-0.032,0.108-0.095,0.158-0.109c0.046,0.046,0.016,0.063,0,0.125
		c-0.017,0.046-0.033,0.125-0.047,0.158c0.017-0.017,0.047-0.079,0.08-0.158c0.032-0.046,0.016-0.095-0.017-0.158l-0.046-0.095
		c-0.079,0.063-0.125,0.095-0.158,0.142C110.125,219.631,110.139,219.775,110.155,219.775 M99.215,220.875
		c-0.079-0.017-0.236,0.032-0.236,0.109c0,0.032,0.017,0.046,0.032,0.079c-0.125,0-0.299-0.033-0.392-0.095
		c-0.017-0.017-0.046-0.033-0.033,0.017c0.046,0.046,0.095,0.079,0.174,0.095c0.079,0.033,0.174,0.046,0.267,0.033l0.016,0.033
		l0.158-0.033c0-0.017-0.017-0.017,0-0.033c0.095-0.032,0.141-0.032,0.174-0.109C99.389,220.891,99.261,220.875,99.215,220.875
		 M99.215,221.016c0,0.016-0.016,0.033-0.046,0.033c-0.033-0.046-0.062-0.125-0.016-0.142
		C99.199,220.891,99.215,220.984,99.215,221.016 M101.149,222.243c-0.063,0.033-0.188,0.125-0.142,0.204
		c0.016,0.033,0.032,0.046,0.063,0.063c-0.125,0.063-0.283,0.125-0.392,0.095c-0.033,0-0.063,0-0.033,0.046
		c0.063,0,0.126,0,0.205-0.016c0.079-0.017,0.174-0.046,0.25-0.096l0.033,0.017l0.125-0.095l-0.032-0.033
		c0.079-0.063,0.125-0.095,0.109-0.174C101.305,222.181,101.195,222.21,101.149,222.243 M101.212,222.368
		c0.016,0.017,0.016,0.033-0.017,0.046c-0.046-0.016-0.108-0.079-0.079-0.109C101.149,222.273,101.212,222.336,101.212,222.368
		 M105.565,222.809c-0.047,0.046-0.096,0.204-0.017,0.25c0.017,0.016,0.032,0.016,0.079,0.016c-0.079,0.109-0.188,0.237-0.283,0.283
		c-0.033,0-0.063,0.032-0.017,0.046c0.063-0.033,0.125-0.063,0.175-0.109c0.063-0.046,0.125-0.125,0.174-0.221h0.033l0.063-0.142
		c-0.016,0-0.033,0-0.033-0.016c0.017-0.095,0.046-0.142-0.017-0.204C105.677,222.668,105.598,222.747,105.565,222.809
		 M105.69,222.872c0.017,0.017,0.017,0.033,0,0.046c-0.046,0.016-0.141,0-0.125-0.046
		C105.581,222.826,105.661,222.855,105.69,222.872 M108.411,221.503c0,0.079,0.063,0.22,0.142,0.204
		c0.033,0,0.045-0.016,0.079-0.032c0.016,0.125,0.016,0.299-0.033,0.392c-0.016,0.033-0.032,0.063,0.017,0.046
		c0.033-0.063,0.063-0.125,0.063-0.188c0.016-0.079,0.016-0.188-0.017-0.283l0.046-0.017l-0.062-0.158
		c-0.017,0.017-0.017,0.017-0.033,0.017c-0.046-0.079-0.046-0.142-0.125-0.158C108.395,221.332,108.395,221.441,108.411,221.503
		 M108.553,221.487c0.016,0,0.033,0,0.033,0.033c-0.033,0.046-0.109,0.079-0.125,0.033
		C108.441,221.503,108.52,221.487,108.553,221.487 M110.123,220.072c0.095,0.142,0.095,0.188,0.173,0.25l0.267-0.063
		c-0.062-0.095-0.124-0.174-0.157-0.283L110.123,220.072z M107.371,222.964c0,0.079-0.062,0.283,0.047,0.315
		c0.236,0.109,0.187,0.046,0.187-0.158v-0.063C107.608,222.997,107.421,222.951,107.371,222.964 M110.547,220.121l0.142,0.237
		c-0.046-0.033-0.063-0.046-0.095-0.046c-0.08,0.033-0.125,0.063-0.205,0.109c0.047,0.095,0.109,0.236,0.188,0.25
		c0.079,0.017,0.158-0.046,0.22-0.079c-0.032-0.079-0.063-0.158-0.108-0.22c0.033,0.016,0.046,0,0.142-0.017
		c0.046-0.033,0.141-0.046,0.141-0.079c0-0.017-0.141-0.188-0.159-0.25v-0.017L110.547,220.121z"/>
	<path clip-path="url(#SVGID_2_)" fill-rule="evenodd" clip-rule="evenodd" fill="#0D6334" d="M105,224.428l0.032-0.046l0.032,0.063
		c0.063,0.142,0.174,0.204,0.316,0.22c0.109,0.017,0.25-0.016,0.362-0.095c0.033-0.033,0.096-0.063,0.158-0.095
		c-0.125,0-0.25-0.033-0.362-0.046c-0.063-0.017-0.109,0-0.158,0.032l-0.095,0.046l0.017-0.095c0.017-0.188,0.017-0.237,0.109-0.392
		c0.095-0.141,0.283-0.345,0.408-0.44v-0.125c0-0.108-0.016-0.283,0.095-0.362c0.095-0.079,0.174,0,0.267,0.046
		c0.063,0.033,0.158,0.095,0.204,0.142c0.079,0.079,0.033,0.283,0.046,0.378v0.046h-0.046c-0.079,0.033-0.22,0.095-0.299,0.142
		c-0.046,0.017-0.188,0.109-0.267,0.188c0.205,0.033,0.425,0.063,0.645,0.063c0.142,0,0.283-0.017,0.425-0.033h0.079l-0.033,0.079
		c-0.063,0.141-0.063,0.315-0.25,0.378c-0.141,0.063-0.299,0.095-0.44,0.142c-0.205,0.079-0.425,0.22-0.613,0.345
		c-0.188,0.125-0.392,0.109-0.566-0.016c-0.062,0.079-0.22,0.125-0.299,0.125c-0.108,0-0.25-0.046-0.316-0.142
		c-0.046,0.046-0.095,0.109-0.141,0.158c-0.188,0.174-0.645,0.141-0.628-0.188c0-0.063-0.017-0.158-0.017-0.237
		c-0.173,0.267-0.408,0.471-0.753,0.362c-0.158-0.046-0.237-0.174-0.237-0.345c0-0.095,0.063-0.315,0.125-0.362l0.095-0.095
		l-0.017,0.125c-0.016,0.079-0.032,0.22,0.047,0.267c0.124,0.046,0.378,0,0.47-0.063c0.096-0.063,0.141-0.109,0.204-0.174
		c-0.046-0.237-0.108-0.457-0.157-0.675v-0.016l0.125-0.503l0.046,0.188c0.046,0.22,0.095,0.44,0.157,0.661
		c0.033,0.174,0.079,0.392,0.096,0.566c0,0.125,0.046,0.158,0.174,0.158c0.108,0,0.315-0.063,0.378-0.158
		c0.079-0.096,0.188-0.283,0.283-0.346l0.017-0.016C104.841,224.254,104.904,224.349,105,224.428 M111.35,220.545l-0.267-0.125
		l-0.126-0.315l0.033-0.017c0.046-0.033,0.25,0.079,0.315,0.095c0.079,0.046,0.188,0.125,0.25,0.204
		c0.033,0.063,0.141,0.22,0.141,0.283c0.017,0.205-0.187,0.33-0.361,0.33c-0.033,0-0.046-0.017-0.063-0.017
		c0.033,0.125,0.033,0.237-0.095,0.329c-0.046,0.046-0.109,0.063-0.174,0.063c-0.033-0.017-0.047-0.017-0.079-0.033
		c-0.063-0.017-0.142-0.079-0.187-0.095c-0.047,0-0.096,0.016-0.126,0.046c-0.033,0.033-0.079,0.096-0.062,0.142
		c0.079,0.174,0.236,0.267,0.424,0.267c0.046,0.017,0.095-0.063,0.125-0.095l0.063-0.046l0.174,0.425l-0.017,0.016
		c-0.079,0.079-0.22,0.125-0.329,0.142c-0.174,0.017-0.392-0.033-0.55-0.125v0.063c0.017,0.108-0.033,0.236-0.079,0.346
		c-0.079,0.158-0.174,0.315-0.378,0.315c-0.063,0-0.109-0.016-0.158-0.033c0.046,0.095,0.016,0.299-0.017,0.392
		c-0.046,0.236-0.109,0.47-0.408,0.47c-0.174,0-0.424-0.408-0.441-0.566l-0.016-0.158l0.141,0.188
		c0.017,0.046,0.079,0.109,0.125,0.125c0.109,0.063,0.205,0.016,0.251-0.095c0.079-0.174,0.108-0.329,0.108-0.52
		c0-0.063,0.017-0.063-0.032-0.096c-0.142-0.095-0.425-0.408-0.612-0.378l-0.033,0.016l-0.125-0.329l0.033-0.016
		c0.095-0.063,0.25-0.016,0.345,0.063s0.566,0.487,0.661,0.52c0.095,0.017,0.174-0.016,0.237-0.079
		c0.095-0.109,0.173-0.457,0.157-0.583c-0.017-0.079-0.046-0.125-0.079-0.188l-0.017-0.046l0.046-0.016
		c0.108-0.046,0.142,0.158,0.22,0.204c0.033,0.033,0.095,0.063,0.158,0.079c-0.032-0.046-0.079-0.109-0.095-0.158
		c-0.047-0.079-0.08-0.142-0.109-0.221c-0.079-0.236,0.046-0.44,0.267-0.503h0.032l0.096,0.095c0.032,0.046,0.157,0.095,0.204,0.046
		c0.046-0.033,0.125-0.109,0.095-0.174c-0.046-0.063-0.079-0.125-0.109-0.188l-0.033-0.046l0.046-0.033
		c0.079-0.033,0.158,0.046,0.237,0.063C111.208,220.608,111.35,220.608,111.35,220.545 M99.702,223.043
		c-0.108-0.063-0.283-0.141-0.283-0.299c0-0.108,0.142-0.236,0.237-0.315c0.079-0.079,0.25-0.204,0.378-0.174
		c0.062,0.017,0.079,0.109,0.095,0.174c0,0.125-0.016,0.22-0.062,0.345c0.032,0.017,0.079,0.033,0.108,0.047
		c0.096,0.046,0.175,0.109,0.299,0.079l0.362-0.158l-0.046,0.125c-0.062,0.125-0.157,0.22,0,0.299
		c0.017,0.016,0.095,0.033,0.109,0.033c0.062,0,0.157-0.125,0.22-0.158l0.095-0.079l-0.033,0.125c0,0.046-0.016,0.095-0.016,0.142
		c0,0.063,0.033,0.095,0.079,0.125c0.016-0.063,0.033-0.125,0.033-0.188l0.017-0.017v-0.016c0.079-0.063,0.108-0.063,0.204-0.125
		l0.109-0.079l-0.125,0.52l-0.016,0.016c-0.033,0.046-0.079,0.079-0.109,0.125c-0.046,0.063-0.157,0.142-0.25,0.125
		c-0.125-0.032-0.237-0.109-0.267-0.236c-0.033,0.016-0.063,0.033-0.125,0.033c-0.108,0-0.345-0.079-0.345-0.221
		c0-0.046,0.017-0.079,0.033-0.125c-0.063,0.033-0.142,0.033-0.204,0.033c-0.095,0-0.237-0.046-0.316-0.079
		c-0.125,0.095-0.408,0.316-0.533,0.33c-0.158,0.016-0.361,0.032-0.52-0.017c-0.267-0.095-0.378-0.299-0.329-0.566
		c0.033-0.174,0.25-0.457,0.44-0.457l0.205,0.017l-0.174,0.079c-0.095,0.046-0.158,0.221-0.158,0.316
		c0,0.157,0.158,0.25,0.283,0.299c0.125,0.033,0.237,0.033,0.378,0.033C99.53,223.155,99.686,223.122,99.702,223.043
		 M112.166,218.423c0.016,0.125-0.033,0.299-0.109,0.362v0.017c-0.095,0.046-0.158,0.046-0.25,0
		c-0.141-0.079-0.345-0.267-0.424-0.392l-0.017-0.016c-0.046-0.158,0.079-0.221,0.204-0.237c0.096-0.016,0.175-0.016,0.268-0.016
		l0.045-0.096l0.109,0.096l0.095,0.016c0.142,0,0.582,0.315,0.661,0.441c0.141,0.283,0.221,0.865,0.108,1.164
		c-0.079,0.204-0.346,0.25-0.533,0.221c-0.22-0.033-0.582-0.188-0.691-0.392l-0.063-0.109l0.125,0.046
		c0.237,0.079,0.346,0.25,0.629,0.174c0.158-0.079,0.204-0.487,0.22-0.645c0.017-0.158-0.033-0.565-0.204-0.612
		C112.293,218.423,112.231,218.423,112.166,218.423 M108.158,223.672c-0.221-0.204-0.33-0.237-0.33-0.55v-0.142l0.063,0.016
		c0.108,0.017,0.299,0.237,0.361,0.33c0.033,0.033,0.046,0.109,0.046,0.158c0.016,0.109,0.016,0.22,0.016,0.329
		c0,0.079-0.032,0.25-0.063,0.316c-0.125,0.204-0.361,0.424-0.599,0.457c-0.345,0.063-0.549-0.174-0.628-0.487
		c-0.033-0.095-0.109-0.52-0.079-0.599l0.032-0.109l0.063,0.096c0.017,0.046,0.063,0.25,0.079,0.329
		c0.033,0.079,0.095,0.204,0.158,0.266c0.108,0.125,0.346,0.096,0.486,0.033c0.142-0.063,0.237-0.174,0.33-0.299
		C108.112,223.799,108.191,223.704,108.158,223.672 M102.107,224.82c-0.046-0.079,0.046-0.188,0.063-0.267
		c0.079-0.267,0.108-0.52,0.157-0.787c0.017-0.142,0.033-0.299,0.046-0.44c0-0.095,0-0.174,0.096-0.237
		c0.062-0.063,0.108-0.125,0.187-0.174l0.08-0.063l-0.046,0.392c-0.033,0.267-0.046,0.599-0.125,0.849
		c-0.079,0.283-0.126,0.566-0.393,0.74l-0.032,0.033L102.107,224.82z M101.462,224.379c-0.22,0.079-0.329,0.095-0.565,0.095
		c-0.204,0.017-0.724-0.095-0.754-0.345v-0.109l0.174,0.125c0.25,0.158,0.628,0.109,0.911,0.046c0.109-0.017,0.25-0.095,0.362-0.142
		c0.188-0.079,0.096-0.095,0.142-0.283c0-0.079,0.016-0.204,0.062-0.267c0.046-0.063,0.109-0.079,0.188-0.109l0.046-0.016
		l0.033,0.109l-0.017,0.032c-0.032,0.033-0.045,0.283-0.079,0.362c-0.033,0.063-0.173,0.22-0.221,0.283
		C101.637,224.27,101.62,224.316,101.462,224.379 M108.017,222.352l0.016-0.441l0.096,0.142c0.125,0.221,0.283,0.424,0.408,0.628
		c0.142,0.237,0.299,0.457,0.441,0.708l0.016,0.017l-0.016,0.44l-0.096-0.125c-0.22-0.33-0.424-0.661-0.645-0.99
		c-0.033-0.046-0.205-0.267-0.22-0.316V222.352z M112.12,220.026c0.125,0.063,0.157,0.174,0.187,0.299l0.047,0.125l-0.125-0.063
		c-0.267-0.174-0.534-0.346-0.803-0.503c-0.126-0.079-0.521-0.283-0.599-0.392c-0.017-0.017-0.033-0.033-0.033-0.046
		c-0.046-0.063-0.062-0.142-0.062-0.22v-0.095l0.079,0.062c0.221,0.158,0.441,0.3,0.661,0.425
		C111.694,219.759,111.915,219.884,112.12,220.026 M106.084,223.484l-0.174,0.095C105.911,223.405,105.973,223.438,106.084,223.484
		 M111.665,218.516c-0.047-0.017-0.016-0.125,0.188-0.125c0.017,0,0,0.046-0.016,0.063
		C111.82,218.532,111.694,218.565,111.665,218.516 M104.7,224.725c0.125,0.095,0.188-0.017,0.188-0.046
		c-0.047-0.079-0.174-0.109-0.204-0.109C104.669,224.599,104.654,224.695,104.7,224.725 M99.718,222.556
		c0-0.063,0.174-0.033,0.109,0.109C99.797,222.635,99.718,222.605,99.718,222.556 M98.271,222.336c0.033,0,0.063-0.017,0.096-0.046
		c0.187-0.188,0.346-0.346,0.533-0.566c0.046-0.046,0.25-0.237,0.25-0.283c0.016-0.096,0.016-0.125,0.108-0.205
		c0.079-0.079,0.283-0.125,0.392-0.125l0.109-0.017l-0.063,0.096c-0.046,0.063-0.095,0.016-0.125,0.109
		c0,0.016,0.017,0.125,0.017,0.142c0,0.125-0.079,0.204-0.204,0.236c-0.095,0.017-0.125,0.063-0.188,0.125l-0.283,0.283
		c-0.125,0.125-0.283,0.267-0.457,0.329c-0.126,0.046-0.316,0.142-0.458,0.142c-0.315-0.033-0.661-0.22-0.691-0.566
		c-0.033-0.283,0.25-0.549,0.549-0.503l0.25,0.033l-0.25,0.063c-0.079,0.016-0.173,0.125-0.157,0.204
		C97.721,222.085,97.975,222.336,98.271,222.336 M96.464,220.167c-0.047-0.017-0.109-0.033-0.174-0.079
		c-0.142-0.079-0.283-0.267-0.346-0.44c-0.095-0.221-0.236-0.471-0.157-0.724c0.032-0.109,0.108-0.158,0.188-0.188
		c-0.204-0.063-0.458-0.158-0.425-0.408c0.033-0.299,0.583-0.204,0.771-0.079c0.079,0.079,0.157,0.142,0.22,0.221l0.125-0.017
		l0.237,0.079v0.033c0.079,0.142-0.283,0.188-0.378,0.237c-0.174,0.079-0.33,0.063-0.379,0.283c-0.032,0.204,0.109,0.44,0.205,0.628
		c0.079,0.142,0.204,0.25,0.33,0.346c0.045-0.017,0.078-0.033,0.173-0.063c0.046-0.033,0.095-0.063,0.158-0.079
		c0.174-0.079,0.141-0.109,0.346-0.079l0.299,0.033l-0.142,0.079c-0.079,0.046-0.174,0.063-0.25,0.109
		c-0.125,0.079-0.267,0.141-0.408,0.204c-0.046,0.032-0.125,0.109-0.125,0.188c0,0.046,0.017,0.109,0.046,0.142
		c0.079,0,0.158-0.063,0.221-0.109c0.095-0.095,0.22-0.22,0.329-0.299c0.158-0.063,0.283-0.033,0.441,0l0.158,0.016l-0.142,0.063
		c-0.095,0.063-0.187,0.095-0.267,0.174c-0.096,0.109-0.22,0.174-0.329,0.267c-0.109,0.063-0.267,0.079-0.392,0.079
		c-0.096-0.017-0.237-0.046-0.33-0.109c-0.079-0.046-0.125-0.142-0.125-0.237C96.322,220.309,96.385,220.23,96.464,220.167
		 M95.944,218.344c0.046-0.237,0.362,0.237,0.409,0.283C96.151,218.723,95.931,218.453,95.944,218.344 M98.303,220.434l0.267,0.032
		l0.237,0.017l-0.142,0.079c-0.282,0.141-0.565,0.283-0.849,0.408c-0.158,0.079-0.299,0.158-0.471,0.221
		c-0.188,0.063-0.299,0.079-0.503,0.033l-0.033-0.017v-0.095h0.046c0.095-0.017,0.174-0.033,0.25-0.079
		c0.174-0.079,0.346-0.174,0.52-0.25c0.221-0.109,0.44-0.22,0.661-0.329L98.303,220.434z"/>
	<path clip-path="url(#SVGID_2_)" fill-rule="evenodd" clip-rule="evenodd" fill="#0D6334" d="M96.905,211.162
		c-0.016,0.046-0.046,0.095-0.079,0.095c-0.017,0.017-0.046,0.017-0.095,0c0,0.033,0.063,0.063,0.109,0.063
		c0.016,0.017,0,0.096-0.046,0.109c-0.079,0.046-0.125,0-0.158,0c0.016,0.017,0.033,0.046,0.079,0.063
		c0.108,0.063,0.157,0,0.188-0.016c0.032-0.046,0.063-0.109,0.032-0.158c0.047-0.033,0.063-0.063,0.08-0.125
		c0-0.017-0.046-0.046-0.096-0.079c-0.032-0.033-0.125-0.079-0.204-0.016c0.045,0.046,0.016,0.046,0.062,0.063
		C96.793,211.162,96.855,211.129,96.905,211.162 M95.569,212.528c0.033,0.063,0.142,0.188,0.221,0.141
		c0.033-0.016,0.033-0.032,0.062-0.046c0.047,0.109,0.109,0.267,0.096,0.378c0,0.016,0,0.063,0.032,0.033
		c0.017-0.063,0.017-0.125,0-0.204c-0.016-0.079-0.046-0.174-0.108-0.25l0.032-0.032l-0.108-0.125
		c-0.017,0.016-0.017,0.032-0.017,0.032c-0.079-0.079-0.109-0.125-0.188-0.095C95.506,212.373,95.553,212.481,95.569,212.528
		 M95.694,212.465c0.017-0.016,0.046,0,0.046,0.017c-0.017,0.046-0.063,0.109-0.109,0.079
		C95.599,212.528,95.678,212.465,95.694,212.465 M102.736,209.132l0.095,0.033l0.566-0.25l0.125-0.033l0.079-0.017l0.046-0.141
		l-0.017-0.016C103.427,208.849,102.689,209.103,102.736,209.132 M100.031,210.313h0.079l0.457-0.408l0.063-0.063l0.079-0.046
		v-0.142l-0.016-0.016C100.551,209.839,99.968,210.313,100.031,210.313 M98.162,209.353l0.095-0.017l0.329-0.52l0.079-0.108
		l0.047-0.063l-0.033-0.141h-0.017C98.57,208.74,98.1,209.369,98.162,209.353 M99.939,208.065h0.095l0.424-0.441l0.096-0.095
		l0.063-0.046v-0.158H100.6C100.456,207.53,99.876,208.065,99.939,208.065 M106.792,207.184c0.033-0.033,0.046-0.063,0.079-0.063
		c0.063-0.017,0.157-0.017,0.204,0.016c0,0.063-0.016,0.063-0.063,0.095c-0.046,0.046-0.125,0.063-0.158,0.079
		c0.033,0.016,0.109-0.017,0.174-0.063c0.066-0.046,0.08-0.063,0.08-0.125l0.016-0.108c-0.079,0-0.158,0-0.204,0.016
		C106.871,207.042,106.792,207.154,106.792,207.184 M104.717,206.98l0.079,0.046l0.582-0.188l0.125-0.032l0.078-0.017l0.063-0.142
		l-0.016-0.016C105.407,206.76,104.654,206.964,104.717,206.98 M107.309,207.641l0.062,0.046l0.425-0.079l0.125-0.016l0.079-0.016
		l0.079-0.125v-0.016C107.845,207.546,107.263,207.608,107.309,207.641 M109.622,208.441c-0.063,0.033-0.188,0.125-0.158,0.204
		c0.016,0.033,0.033,0.033,0.063,0.063c-0.108,0.063-0.267,0.108-0.378,0.095c-0.032,0-0.063,0-0.032,0.033
		c0.063,0.017,0.125,0.017,0.204,0c0.079-0.016,0.174-0.046,0.25-0.108l0.032,0.032l0.126-0.095
		c-0.017-0.016-0.033-0.016-0.033-0.033c0.063-0.063,0.126-0.095,0.095-0.174C109.776,208.378,109.668,208.411,109.622,208.441
		 M109.685,208.566c0.016,0.017,0,0.033-0.017,0.046c-0.046-0.016-0.109-0.079-0.079-0.108
		C109.622,208.474,109.668,208.537,109.685,208.566 M112.56,212.811l0.016,0.095l0.316,0.283l0.079,0.079l0.046,0.063h0.158
		l0.016-0.016C112.969,213.188,112.56,212.748,112.56,212.811 M96.165,211.113l0.032,0.079c0.175-0.079,0.392-0.017,0.487,0.063
		c-0.033-0.095-0.142-0.158-0.267-0.188C96.339,211.067,96.214,211.083,96.165,211.113 M101.903,206.964
		c0.095,0.109,0.125,0.141,0.157,0.22c0.033,0.095,0.017,0.158,0.017,0.237c0,0.046-0.017,0.095,0.017,0.158
		c0.016-0.033,0.078-0.204,0.062-0.346c0-0.109-0.017-0.204-0.188-0.345L101.903,206.964z M112.797,212.324l-0.188-0.095h-0.079
		c0.046,0.079,0.125,0.125,0.188,0.125h0.158c0.204,0-0.046-0.204-0.046-0.283h-0.22
		C112.639,212.103,112.781,212.166,112.797,212.324 M98.932,209.339c-0.046,0.033-0.096,0.033-0.125,0.017
		c-0.033,0-0.046-0.017-0.08-0.063c-0.016,0.032,0.017,0.095,0.047,0.125c0,0.016-0.063,0.063-0.109,0.046
		c-0.079-0.016-0.095-0.079-0.109-0.108c-0.016,0.033-0.016,0.063,0,0.108c0.063,0.109,0.125,0.109,0.158,0.109
		c0.062-0.016,0.141-0.046,0.141-0.109c0.047,0.017,0.08,0,0.125-0.032c0.016-0.017,0.016-0.079-0.017-0.125
		c-0.017-0.046-0.046-0.125-0.141-0.141c0,0.063-0.016,0.046,0.016,0.079C98.836,209.26,98.916,209.29,98.932,209.339
		 M112.057,210.816c-0.471-0.33-1.007-0.599-1.51-0.816l-0.142,0.017c0.237,0.125,1.432,0.707,1.494,0.849L112.057,210.816z
		 M112.027,211.994l0.017,0.267l0.329-0.125l-0.032-0.283h-0.017C112.244,211.853,112.073,211.916,112.027,211.994 M111.932,212.386
		v0.095l0.017,0.204l0.141-0.017c0.08,0,0.158-0.016,0.175-0.063c0.016-0.016-0.017-0.25-0.047-0.299l-0.204,0.046l0.033-0.046
		c-0.033-0.046-0.046-0.204-0.046-0.25c-0.017-0.079-0.188,0.017-0.237,0.046c-0.142,0.063-0.063,0.158-0.046,0.283
		C111.728,212.544,111.774,212.402,111.932,212.386"/>
	<path clip-path="url(#SVGID_2_)" fill-rule="evenodd" clip-rule="evenodd" fill="#0D6334" d="M99.106,210.03
		c-0.425-0.033-0.816-0.046-1.241-0.109c-0.188-0.032-0.283-0.141-0.408-0.283l-0.032-0.033l0.063-0.079l0.033,0.017
		c0.158,0.046,0.236,0.063,0.392,0.079c0.408,0.046,0.803,0.095,1.195,0.141c0.046-0.25,0.095-0.503,0.125-0.77
		c0.033-0.174,0.047-0.346,0.079-0.52c0-0.079,0.016-0.25,0.109-0.267h0.016h0.017c0.062,0.033,0.046,0.299,0.033,0.362
		c-0.033,0.408-0.125,0.816-0.188,1.227c0.141,0.046,0.299,0.174,0.361,0.283c0.109,0.174,0.095,0.378-0.017,0.549
		c-0.095,0.142-0.236,0.158-0.345,0.033c-0.126-0.125-0.175-0.315-0.188-0.487C99.106,210.123,99.106,210.076,99.106,210.03
		 M106.681,208.145c0.046-0.142,0.125-0.204,0.22-0.315l0.033-0.033l0.283,0.25l-0.283,0.316l-0.033-0.017
		c-0.062-0.063-0.141-0.095-0.22-0.158l-0.016-0.017L106.681,208.145z M108.299,207.655c0.063,0.046-0.016,0.204-0.033,0.267
		c-0.063,0.204-0.424,1.478-0.582,1.523l-0.204,0.079l-0.033-0.046c-0.017-0.046,0.079-0.188,0.109-0.25
		c0.095-0.22,0.158-0.44,0.237-0.661c0.046-0.141,0.079-0.283,0.125-0.408c0.046-0.158,0.062-0.3,0.174-0.392
		c0.047-0.046,0.109-0.063,0.142-0.108l0.032-0.017L108.299,207.655z M103.13,208.49c-0.063-0.409-0.188-0.833-0.237-1.241
		c0-0.095,0.079-0.316,0.158-0.362l0.08-0.063v0.108c-0.017,0.125,0.204,1.369,0.25,1.461l0.017,0.016l-0.126,0.392l-0.095,0.017
		L103.13,208.49z M100.379,209.777c-0.109-0.22-0.205-0.457-0.345-0.675c-0.095-0.174-0.188-0.329-0.283-0.503
		c-0.046-0.063-0.079-0.142-0.095-0.221v-0.033l0.033-0.25h0.046c0.046,0,0.079,0.063,0.095,0.095
		c0.046,0.079,0.095,0.158,0.142,0.25c0.125,0.204,0.237,0.408,0.346,0.612c0.063,0.095,0.188,0.299,0.204,0.392v0.017
		c0,0.109,0,0.22-0.046,0.315l-0.045,0.095L100.379,209.777z M98.695,211.303c-0.378-0.329-0.865-0.645-1.29-0.928
		c-0.109-0.063-0.188-0.283-0.125-0.392l0.033-0.063l0.046,0.033c0.062,0.046,0.125,0.109,0.188,0.174l0.612,0.424
		c0.142,0.095,0.521,0.329,0.566,0.471c0.033,0.063,0.046,0.174,0.063,0.25v0.109L98.695,211.303z M112.81,213.58
		c-0.267,0.017-0.533,0.125-0.786,0.188c-0.267,0.079-0.52,0.188-0.786,0.25h-0.017l-0.345-0.142l0.046-0.046
		c0.033-0.063,0.283-0.125,0.346-0.141c0.362-0.109,0.708-0.22,1.069-0.316c0.109-0.016,0.046-0.109,0.267-0.046
		c0.109,0.046,0.188,0.063,0.237,0.174l0.032,0.063L112.81,213.58z M107.138,208.944v-0.046v-0.283l0.188-0.25
		c0.062-0.063,0.141,0,0.141,0.095c0,0.079-0.016,0.158-0.016,0.237c-0.017,0.125-0.046,0.204-0.142,0.299
		c-0.063,0.079-0.142,0.174-0.204,0.25c-0.188,0.188-0.928,0.108-1.165,0.016c-0.141-0.046-0.392-0.142-0.424-0.315
		c-0.063-0.25,0.017-0.392,0.109-0.612c0.046-0.079,0.188-0.299,0.267-0.362l0.079-0.046l-0.017,0.095
		c-0.017,0.204-0.174,0.346-0.174,0.52c0,0.25,0.362,0.378,0.55,0.408c0.22,0.046,0.486,0.079,0.707,0.033
		C107.059,208.977,107.121,208.961,107.138,208.944 M104.762,208.158c-0.392-0.362-0.849-0.691-1.21-1.069
		c-0.142-0.158-0.125-0.299-0.142-0.487l-0.016-0.032l0.096-0.033l0.032,0.033c0.079,0.141,0.125,0.204,0.25,0.315
		c0.362,0.378,0.77,0.708,1.165,1.069c0.175-0.188,0.33-0.362,0.503-0.533c0.079-0.095,0.158-0.174,0.221-0.267
		c0.062-0.063,0.283-0.346,0.392-0.3h0.016v0.017c0.033,0.063-0.141,0.267-0.174,0.315c-0.283,0.3-0.566,0.599-0.833,0.912
		c0.063,0.125,0.109,0.329,0.109,0.457c-0.032,0.204-0.174,0.346-0.378,0.408c-0.141,0.046-0.266-0.033-0.283-0.188
		c-0.016-0.188,0.063-0.346,0.158-0.503C104.7,208.237,104.732,208.19,104.762,208.158 M102.689,207.467
		c0.063,0.204,0.109,0.425,0.158,0.629c0.032,0.109,0.046,0.22,0.032,0.329c0,0.095-0.046,0.22-0.079,0.315
		c-0.046,0.158-0.079,0.204-0.204,0.316c-0.237,0.204-0.691,0.315-1.007,0.315c-0.157,0-0.267-0.079-0.345-0.204
		c0,0.033-0.017,0.063-0.033,0.095c-0.063,0.174-0.204,0.378-0.424,0.345c-0.096-0.016-0.143-0.079-0.143-0.188
		c0-0.095,0.017-0.204,0.047-0.299c0.016-0.095,0.046-0.22,0.108-0.299c0.046-0.109,0.174-0.175,0.267-0.237h0.017
		c-0.017-0.046-0.033-0.063-0.033-0.109c0-0.079,0.095-0.25,0.125-0.329l0.033-0.079l0.045,0.079
		c0.095,0.158,0.109,0.362,0.158,0.534c0.033,0.095,0.063,0.22,0.158,0.25c0.25,0.095,0.661-0.063,0.882-0.174
		c0.079-0.046,0.141-0.095,0.204-0.141c-0.016-0.188-0.063-0.378-0.108-0.55c-0.033-0.174-0.063-0.378-0.125-0.533
		c-0.032-0.096-0.204-0.109-0.141-0.346c0.032-0.063,0.095-0.204,0.125-0.25l0.095-0.125v0.141c0,0.046,0.017,0.125,0.046,0.158
		c0.079,0.046,0.141,0,0.188,0.158C102.751,207.309,102.705,207.404,102.689,207.467 M97.642,211.899
		c-0.045-0.033-0.108-0.046-0.158-0.079c-0.079-0.033-0.346-0.142-0.392-0.188c-0.079-0.079-0.109-0.158-0.158-0.236l-0.016-0.033
		l0.063-0.079l0.046,0.016c0.174,0.125,0.628,0.362,0.833,0.424c0.125,0.017,0.188-0.108,0.204-0.204v-0.046
		c-0.108-0.016-0.283-0.079-0.391-0.109c-0.109-0.033-0.408-0.125-0.487-0.204l-0.188-0.315l0.079-0.046l0.033,0.017
		c0.22,0.158,0.408,0.174,0.645,0.25c0.095,0.033,0.158,0.063,0.236,0.109c0.08,0.046,0.251,0.267,0.316,0.362
		c0.065,0.095,0.095,0.174,0.063,0.283c-0.033,0.125-0.096,0.236-0.237,0.25c-0.062,0-0.108-0.016-0.157-0.033
		c0.046,0.142,0.062,0.283,0.062,0.425c0,0.362-0.25,0.802-0.661,0.802h-0.079c0.063,0.096,0.109,0.205,0.109,0.299
		c0,0.174-0.046,0.392-0.267,0.33c-0.125-0.046-0.267-0.221-0.362-0.316c-0.108-0.142-0.079-0.362-0.095-0.533
		c0-0.033-0.046-0.063-0.062-0.079h-0.017v-0.017c-0.046-0.079-0.079-0.174-0.079-0.267l-0.017-0.079l0.079,0.033
		c0.173,0.095,0.378,0.237,0.565,0.283c0.205,0.063,0.362-0.158,0.44-0.316c0.063-0.095,0.109-0.25,0.109-0.362
		C97.705,212.182,97.675,211.932,97.642,211.899 M108.96,209.777c0.063-0.109,0.299-0.392,0.346-0.457
		c0.033-0.046,0.158-0.22,0.158-0.267v-0.016c0.033-0.096,0.237-0.142,0.315-0.109l0.017,0.016v0.033c0,0.095,0,0.109-0.046,0.188
		c-0.142,0.236-0.566,0.612-0.566,0.881c0,0.299,0.33,0.52,0.566,0.661c0.267,0.158,0.612,0.315,0.944,0.315
		c0.158,0,0.158,0,0.315-0.046l0.109-0.033l-0.063,0.109c-0.108,0.221-0.362,0.267-0.565,0.408l0.236-0.016
		c0.109,0,0.174,0,0.283,0.046c0.188,0.063,0.787,0.645,0.33,0.724c-0.063,0.016-0.125,0.033-0.142,0.109
		c-0.017,0.079,0.033,0.204,0.095,0.25c0.033,0.017,0.079,0,0.109,0c0.079,0,0.142,0,0.22,0.017l0.142-0.017l-0.063,0.095
		c-0.079,0.109-0.25,0.095-0.315,0.174c-0.033,0.063-0.033,0.158,0,0.22l0.188-0.125h0.237c0.063,0,0.063,0,0.125,0.046l0.033,0.016
		l-0.046,0.079h-0.032c-0.047,0-0.221,0.158-0.283,0.188c-0.126,0.046-0.251,0.016-0.378,0.033
		c-0.283,0.033-0.409-0.408-0.205-0.566c-0.033-0.017-0.095-0.033-0.142-0.079c-0.063-0.063-0.079-0.158-0.108-0.22
		c-0.109-0.283,0.236-0.299,0.282-0.362c0.017-0.046-0.095-0.22-0.125-0.25c-0.046-0.063-0.142-0.158-0.204-0.188
		c-0.204-0.063-0.408,0.046-0.424,0.267v0.046h-0.046c-0.125,0-0.251,0.017-0.362-0.046l-0.016-0.017v-0.032
		c0.016-0.125,0.063-0.283,0.125-0.378c0.046-0.095,0.125-0.142,0.188-0.204c-0.267-0.063-0.583-0.22-0.816-0.346
		c-0.188-0.108-0.583-0.424-0.583-0.661c0-0.032,0.017-0.157,0.017-0.204h-0.126c-0.236,0-0.565-0.079-0.723-0.283
		c-0.109-0.158-0.096-0.299,0.016-0.471c0.063-0.141,0.315-0.315,0.457-0.283l0.237,0.033l-0.22,0.063
		c-0.299,0.079-0.158,0.47,0.062,0.566C108.631,209.747,108.819,209.777,108.96,209.777 M99.278,210.046
		c0,0.079,0.016,0.25,0.062,0.267c0.047,0.016,0.079-0.017,0.095-0.046c0.017-0.046,0.046-0.109,0.017-0.158
		C99.419,210.06,99.34,210.046,99.278,210.046 M104.89,208.286c-0.046,0.063-0.141,0.205-0.109,0.251
		c0.017,0.032,0.063,0.032,0.095,0.016c0.033-0.016,0.096-0.063,0.109-0.125C104.983,208.378,104.937,208.316,104.89,208.286
		 M101.149,208.928c-0.046,0.016-0.095,0.016-0.142,0.046c-0.033,0.032-0.174,0.157-0.174,0.204c0,0.033,0.063,0.033,0.095,0.033
		c0.063-0.016,0.109-0.079,0.142-0.109C101.117,209.056,101.149,208.991,101.149,208.928 M97.03,213.188
		c-0.033,0.033-0.047,0.079-0.047,0.125c-0.016,0.095,0.017,0.158,0.079,0.204C97.139,213.439,97.125,213.284,97.03,213.188"/>
	<path clip-path="url(#SVGID_2_)" fill="#63B246" d="M157.953,227.682v-31.561h-31.564l-22.318-22.318l-22.318,22.318h-31.56v31.561
		L27.877,250l22.319,22.318v31.561h31.563l22.318,22.317l22.318-22.317h31.563v-31.561L180.268,250L157.953,227.682z
		 M156.152,271.135l-0.311,0.311v30.325h-30.326l-21.441,21.441l-21.442-21.441H52.305v-30.328L30.862,250l21.443-21.442V198.23
		h30.325l21.442-21.442l21.442,21.442h30.325v30.325L177.283,250L156.152,271.135z"/>
	<path clip-path="url(#SVGID_2_)" fill="#FDEC0A" d="M104.074,313.63l-18.637-18.637H59.082v-26.356L40.444,250l18.637-18.637
		v-26.356h26.355l18.637-18.637l18.637,18.637h26.356v26.356L167.704,250l-18.637,18.637v26.356h-26.356L104.074,313.63z
		 M61.19,292.884h25.121l17.764,17.764l17.763-17.764h25.121v-25.12L164.719,250l-17.763-17.764v-25.12h-25.121l-17.763-17.764
		l-17.763,17.764H61.188v25.12L43.427,250l17.763,17.764V292.884z"/>
	<path clip-path="url(#SVGID_2_)" fill="#010101" d="M193.668,213.886h7.834c0,0.7,0.151,1.263,0.454,1.686l5.06,6.331l5.421-6.577
		c0.26-0.328,0.416-0.601,0.467-0.817c0.061-0.216,0.091-0.424,0.091-0.623h5.993c-1.003,1.859-1.505,3.853-1.505,5.98v8.094
		c0,3.027,0.221,5.085,0.661,6.175h-6.654c0.441-1.072,0.661-3.13,0.661-6.175v-6.005l-5.228,7.004l-5.253-7.004v6.005
		c0,2.595,0.221,4.653,0.662,6.175h-6.655c0.441-1.366,0.662-3.425,0.662-6.175v-10.779L193.668,213.886z"/>
	<path clip-path="url(#SVGID_2_)" fill="#010101" d="M221.71,234.134c0.605-0.838,1.223-1.998,1.855-3.476l6.032-14.307
		c0.363-0.9,0.627-1.721,0.792-2.465h4.501c0.172,0.848,0.419,1.639,0.739,2.374l6.006,14.009c0.83,1.946,1.474,3.234,1.933,3.865
		h-6.33c-0.018-0.64-0.233-1.474-0.649-2.503l-1.024-2.556h-6.227l-0.999,2.698c-0.312,0.839-0.466,1.626-0.466,2.36H221.71z
		 M230.465,225.404h3.892l-1.972-5.668L230.465,225.404z"/>
	<path clip-path="url(#SVGID_2_)" fill="#010101" d="M247.105,228.465c1.565,1.358,2.945,2.037,4.138,2.037
		c0.579,0,1.077-0.168,1.491-0.506c0.424-0.337,0.636-0.809,0.636-1.414c0-0.493-0.225-1.007-0.675-1.543
		c-0.45-0.537-1.223-1.232-2.322-2.089c-1.09-0.864-1.907-1.742-2.451-2.633c-0.545-0.89-0.818-1.85-0.818-2.879
		c0-1.643,0.623-3.031,1.868-4.164c1.253-1.133,2.936-1.7,5.046-1.7c1.185,0,2.547,0.242,4.086,0.727v4.864
		c-1.254-1.098-2.457-1.647-3.606-1.647c-0.606,0-1.073,0.147-1.401,0.441c-0.329,0.294-0.493,0.674-0.493,1.141
		c0,0.597,0.324,1.185,0.973,1.765c0.648,0.57,1.392,1.223,2.231,1.958c1.029,0.882,1.794,1.816,2.296,2.802
		c0.509,0.977,0.765,1.941,0.765,2.893c0,1.747-0.679,3.173-2.037,4.28c-1.349,1.099-3.074,1.647-5.176,1.647
		c-1.426,0-2.944-0.294-4.553-0.882V228.465z"/>
	<path clip-path="url(#SVGID_2_)" fill="#010101" d="M261.631,237.909c1.945-0.709,3.298-1.708,4.059-2.997
		c0.761-1.297,1.142-3.355,1.142-6.174v-11.078c-1.237,0.026-2.598,0.173-4.086,0.441l1.245-4.216h8.834
		c-0.441,1.487-0.662,3.157-0.662,5.007v5.98v5.279c0,3.096-0.609,5.266-1.83,6.512c-1.219,1.236-2.901,1.854-5.045,1.854
		C263.974,238.518,262.755,238.315,261.631,237.909"/>
	<path clip-path="url(#SVGID_2_)" fill="#010101" d="M278.621,234.134c0.441-1.47,0.662-2.814,0.662-4.034v-11.532
		c0-1.522-0.221-3.083-0.662-4.683h6.655c-0.441,1.202-0.662,2.65-0.662,4.345v11.558c0,1.756,0.22,3.204,0.662,4.345H278.621z"/>
	<path clip-path="url(#SVGID_2_)" fill="#010101" d="M291.732,234.134c0.441-1.288,0.662-2.447,0.662-3.476v-12.336
		c0-1.461-0.221-2.94-0.662-4.436h4.112h2.206c3.398,0,6.122,0.947,8.171,2.841c2.049,1.885,3.075,4.315,3.075,7.29
		c0,2.854-0.939,5.253-2.815,7.199c-1.877,1.945-4.657,2.918-8.34,2.918h-1.258H291.732z M298.335,217.44h-0.61v13.14h0.416
		c1.686,0,3.009-0.592,3.969-1.777c0.96-1.185,1.44-2.75,1.44-4.696c0-1.972-0.498-3.554-1.492-4.748
		C301.063,218.158,299.822,217.518,298.335,217.44"/>
	<path clip-path="url(#SVGID_2_)" fill="#010101" d="M325.18,218.737l1.336-4.851h15.954l-1.335,4.631
		c-1.073-0.423-1.985-0.709-2.737-0.856c-0.753-0.147-1.388-0.221-1.907-0.221v12.323c0,1.583,0.22,3.04,0.662,4.372h-6.655
		c0.441-1.608,0.661-3.152,0.661-4.631V217.44c-1.34,0.095-2.421,0.247-3.243,0.454C327.104,218.102,326.192,218.383,325.18,218.737
		"/>
	<path clip-path="url(#SVGID_2_)" fill="#010101" d="M344.142,234.134c0.605-0.838,1.224-1.998,1.854-3.476l6.032-14.307
		c0.364-0.9,0.626-1.721,0.791-2.465h4.502c0.172,0.848,0.419,1.639,0.739,2.374l6.006,14.009c0.83,1.946,1.474,3.234,1.933,3.865
		h-6.33c-0.017-0.64-0.233-1.474-0.648-2.503l-1.025-2.556h-6.226l-0.999,2.698c-0.311,0.839-0.467,1.626-0.467,2.36H344.142z
		 M352.897,225.404h3.892l-1.972-5.668L352.897,225.404z"/>
	<path clip-path="url(#SVGID_2_)" fill="#010101" d="M380.472,234.446h0.208c-4.22,0-7.229-1.016-9.028-3.049
		c-1.799-2.041-2.698-4.505-2.698-7.394c0-2.957,1.012-5.435,3.035-7.433c2.023-1.998,4.666-2.997,7.925-2.997
		c3.036,0,5.591,0.934,7.667,2.802c2.084,1.868,3.126,4.371,3.126,7.51c0,3.649-1.418,6.408-4.254,8.276
		c1.159,2.127,3.221,3.96,6.188,5.5c-1.453,0.372-2.785,0.558-3.996,0.558c-1.28,0-2.542-0.26-3.788-0.778
		C383.611,236.923,382.15,235.924,380.472,234.446 M374.7,223.16c0,2.266,0.696,4.039,2.089,5.318
		c1.401,1.271,2.988,1.907,4.76,1.907c0.216,0,0.657-0.039,1.323-0.117c1.393-1.375,2.088-3.113,2.088-5.214
		s-0.623-3.861-1.867-5.279c-1.237-1.427-2.897-2.141-4.981-2.141c-0.398,0-0.9,0.061-1.505,0.182
		C375.335,219.208,374.7,220.99,374.7,223.16"/>
	<path clip-path="url(#SVGID_2_)" fill="#010101" d="M394.18,213.886h6.94c-0.13,0.744-0.195,1.293-0.195,1.647
		c0,0.7,0.099,1.47,0.299,2.309l1.854,7.991l2.503-9.729c0.13-0.536,0.25-1.275,0.363-2.218h3.749
		c0.086,0.943,0.19,1.63,0.312,2.063l2.568,9.806l2.114-8.781c0.164-0.683,0.247-1.215,0.247-1.596c0-0.346-0.083-0.843-0.247-1.492
		h6.577c-0.632,0.952-1.115,2.058-1.453,3.321l-4.527,16.928h-4.501l-3.009-10.364l-3.113,10.364h-4.501l-4.631-17.317
		C395.287,215.944,394.837,214.967,394.18,213.886"/>
	<path clip-path="url(#SVGID_2_)" fill="#010101" d="M422.637,234.134c0.605-0.838,1.223-1.998,1.854-3.476l6.032-14.307
		c0.363-0.9,0.627-1.721,0.792-2.465h4.501c0.173,0.848,0.419,1.639,0.74,2.374l6.006,14.009c0.83,1.946,1.474,3.234,1.933,3.865
		h-6.331c-0.017-0.64-0.233-1.474-0.648-2.503l-1.024-2.556h-6.226l-0.999,2.698c-0.312,0.839-0.467,1.626-0.467,2.36H422.637z
		 M431.393,225.404h3.891l-1.972-5.668L431.393,225.404z"/>
	<path clip-path="url(#SVGID_2_)" fill="#010101" d="M193.668,244.489h7.834c0,0.7,0.151,1.263,0.454,1.686l5.06,6.331l5.421-6.577
		c0.26-0.328,0.416-0.601,0.467-0.817c0.061-0.216,0.091-0.424,0.091-0.623h5.993c-1.003,1.859-1.505,3.853-1.505,5.98v8.094
		c0,3.026,0.221,5.085,0.661,6.174h-6.654c0.441-1.071,0.661-3.13,0.661-6.174v-6.006l-5.228,7.004l-5.253-7.004v6.006
		c0,2.594,0.221,4.651,0.662,6.174h-6.655c0.441-1.366,0.662-3.424,0.662-6.174v-10.78L193.668,244.489z"/>
	<path clip-path="url(#SVGID_2_)" fill="#010101" d="M221.298,244.489h6.654c-0.441,1.444-0.662,3.065-0.662,4.864v6.563
		c0,1.912,0.29,3.257,0.869,4.035c0.588,0.77,1.336,1.154,2.244,1.154c0.744,0,1.418-0.281,2.023-0.843
		c0.606-0.563,0.909-1.881,0.909-3.956v-8.082c0-1.444-0.221-2.689-0.662-3.735h6.655c-0.441,0.96-0.662,2.171-0.662,3.632v12.271
		c0,1.644,0.221,3.092,0.662,4.346h-5.409v-1.583c-1.505,1.264-3.217,1.895-5.137,1.895c-2.17,0-3.853-0.631-5.045-1.895
		c-1.185-1.262-1.777-3.281-1.777-6.057v-7.926C221.959,247.615,221.738,246.054,221.298,244.489"/>
	<path clip-path="url(#SVGID_2_)" fill="#010101" d="M243.024,244.489h6.654c-0.441,1.375-0.662,2.858-0.662,4.449v3.749h6.044
		v-4.255c0-1.237-0.22-2.551-0.661-3.943h6.654c-0.441,1.47-0.662,2.711-0.662,3.723v13.036c0,1.297,0.221,2.46,0.662,3.489h-6.654
		c0.441-1.384,0.661-2.672,0.661-3.865v-4.462h-6.044v4.98c0,1.072,0.221,2.188,0.662,3.347h-6.654
		c0.441-1.427,0.662-2.931,0.662-4.514v-11.739C243.686,247.153,243.466,245.821,243.024,244.489"/>
	<path clip-path="url(#SVGID_2_)" fill="#010101" d="M262.17,264.737c0.606-0.839,1.224-1.997,1.855-3.476l6.032-14.308
		c0.363-0.899,0.627-1.721,0.792-2.464h4.5c0.173,0.847,0.419,1.639,0.74,2.374l6.006,14.009c0.83,1.945,1.474,3.234,1.933,3.865
		h-6.33c-0.018-0.64-0.233-1.475-0.649-2.503l-1.024-2.556h-6.227l-0.999,2.698c-0.312,0.838-0.467,1.626-0.467,2.36H262.17z
		 M270.926,256.008h3.891l-1.971-5.668L270.926,256.008z"/>
	<path clip-path="url(#SVGID_2_)" fill="#010101" d="M283.314,244.489h7.834c0,0.7,0.151,1.263,0.454,1.686l5.059,6.331l5.422-6.577
		c0.259-0.328,0.415-0.601,0.467-0.817c0.06-0.216,0.091-0.424,0.091-0.623h5.992c-1.002,1.859-1.504,3.853-1.504,5.98v8.094
		c0,3.026,0.22,5.085,0.661,6.174h-6.654c0.442-1.071,0.662-3.13,0.662-6.174v-6.006l-5.227,7.004l-5.254-7.004v6.006
		c0,2.594,0.221,4.651,0.662,6.174h-6.654c0.441-1.366,0.662-3.424,0.662-6.174v-10.78L283.314,244.489z"/>
	<path clip-path="url(#SVGID_2_)" fill="#010101" d="M309.27,244.489h7.835c0,0.7,0.151,1.263,0.454,1.686l5.059,6.331l5.422-6.577
		c0.26-0.328,0.416-0.601,0.467-0.817c0.061-0.216,0.091-0.424,0.091-0.623h5.993c-1.003,1.859-1.504,3.853-1.504,5.98v8.094
		c0,3.026,0.221,5.085,0.662,6.174h-6.655c0.441-1.071,0.662-3.13,0.662-6.174v-6.006l-5.227,7.004l-5.254-7.004v6.006
		c0,2.594,0.221,4.651,0.662,6.174h-6.655c0.442-1.366,0.662-3.424,0.662-6.174v-10.78L309.27,244.489z"/>
	<path clip-path="url(#SVGID_2_)" fill="#010101" d="M334.654,264.737c0.605-0.839,1.224-1.997,1.855-3.476l6.032-14.308
		c0.363-0.899,0.626-1.721,0.791-2.464h4.502c0.172,0.847,0.419,1.639,0.739,2.374l6.006,14.009c0.83,1.945,1.474,3.234,1.933,3.865
		h-6.331c-0.017-0.64-0.233-1.475-0.648-2.503l-1.025-2.556h-6.226l-0.999,2.698c-0.311,0.838-0.467,1.626-0.467,2.36H334.654z
		 M343.41,256.008h3.892l-1.972-5.668L343.41,256.008z"/>
	<path clip-path="url(#SVGID_2_)" fill="#010101" d="M357.809,264.737c0.44-1.288,0.662-2.446,0.662-3.477v-12.335
		c0-1.461-0.221-2.94-0.662-4.436h4.112h2.205c3.398,0,6.123,0.947,8.172,2.841c2.05,1.885,3.074,4.314,3.074,7.289
		c0,2.854-0.938,5.254-2.815,7.199s-4.656,2.919-8.34,2.919h-1.258H357.809z M364.411,248.043h-0.609v13.14h0.415
		c1.686,0,3.009-0.593,3.969-1.777s1.44-2.75,1.44-4.695c0-1.973-0.498-3.555-1.492-4.748
		C367.14,248.761,365.898,248.121,364.411,248.043"/>
	<path clip-path="url(#SVGID_2_)" fill="#010101" d="M378.212,264.737c0.441-1.47,0.662-2.814,0.662-4.034v-11.531
		c0-1.522-0.221-3.083-0.662-4.683h6.654c-0.441,1.202-0.662,2.65-0.662,4.346v11.557c0,1.757,0.221,3.205,0.662,4.346H378.212z"/>
	<path clip-path="url(#SVGID_2_)" fill="#010101" d="M386.164,244.489h6.914c0.078,0.831,0.419,1.808,1.024,2.932l1.83,3.398
		l2.282-4.268c0.338-0.623,0.576-1.31,0.713-2.063h6.252c-1.089,1.15-1.993,2.391-2.71,3.723l-4.034,7.354v4.54
		c0,1.453,0.221,2.997,0.662,4.631h-6.655c0.441-1.522,0.662-3.191,0.662-5.007v-3.93l-4.475-8.069
		C387.954,246.539,387.132,245.458,386.164,244.489"/>
	<path clip-path="url(#SVGID_2_)" fill="#010101" d="M403.728,264.737c0.605-0.839,1.223-1.997,1.854-3.476l6.032-14.308
		c0.363-0.899,0.626-1.721,0.791-2.464h4.501c0.173,0.847,0.419,1.639,0.74,2.374l6.006,14.009c0.83,1.945,1.474,3.234,1.933,3.865
		h-6.331c-0.017-0.64-0.233-1.475-0.649-2.503l-1.024-2.556h-6.226l-0.999,2.698c-0.311,0.838-0.467,1.626-0.467,2.36H403.728z
		 M412.483,256.008h3.891l-1.971-5.668L412.483,256.008z"/>
	<path clip-path="url(#SVGID_2_)" fill="#010101" d="M426.713,244.489h6.654c-0.441,1.375-0.661,2.858-0.661,4.449v3.749h6.044
		v-4.255c0-1.237-0.221-2.551-0.662-3.943h6.655c-0.441,1.47-0.662,2.711-0.662,3.723v13.036c0,1.297,0.221,2.46,0.662,3.489h-6.655
		c0.441-1.384,0.662-2.672,0.662-3.865v-4.462h-6.044v4.98c0,1.072,0.22,2.188,0.661,3.347h-6.654
		c0.441-1.427,0.662-2.931,0.662-4.514v-11.739C427.375,247.153,427.154,245.821,426.713,244.489"/>
	<path clip-path="url(#SVGID_2_)" fill="#010101" d="M193.668,275.093h7.834c0,0.7,0.151,1.263,0.454,1.686l5.06,6.33l5.421-6.576
		c0.26-0.328,0.416-0.601,0.467-0.816c0.061-0.217,0.091-0.425,0.091-0.623h5.993c-1.003,1.859-1.505,3.853-1.505,5.979v8.095
		c0,3.026,0.221,5.084,0.661,6.174h-6.654c0.441-1.072,0.661-3.13,0.661-6.174v-6.006l-5.228,7.004l-5.253-7.004v6.006
		c0,2.594,0.221,4.652,0.662,6.174h-6.655c0.441-1.366,0.662-3.425,0.662-6.174v-10.78L193.668,275.093z"/>
	<path clip-path="url(#SVGID_2_)" fill="#010101" d="M236.534,295.341c0.604-0.839,1.223-1.998,1.854-3.476l6.032-14.309
		c0.363-0.899,0.626-1.721,0.791-2.464h4.501c0.172,0.848,0.419,1.639,0.74,2.374l6.006,14.008c0.83,1.946,1.474,3.235,1.933,3.866
		h-6.331c-0.017-0.64-0.233-1.474-0.649-2.503l-1.024-2.556h-6.226l-1,2.698c-0.311,0.839-0.467,1.625-0.467,2.36H236.534z
		 M245.289,286.611h3.892l-1.972-5.669L245.289,286.611z"/>
	<path clip-path="url(#SVGID_2_)" fill="#010101" d="M275.092,275.093h7.329c0.813,1.418,1.647,2.763,2.503,4.033l5.332,7.758
		v-6.006c0-2.223-0.221-4.151-0.662-5.785h6.317c-0.441,1.643-0.661,3.377-0.661,5.201v9.846c0,1.409,0.22,3.143,0.661,5.201h-5.993
		c-0.337-0.891-0.93-1.972-1.777-3.243l-5.228-7.511v5.553c0,1.859,0.221,3.593,0.661,5.201h-6.317
		c0.441-1.479,0.662-2.893,0.662-4.241v-12.531L275.092,275.093z"/>
	<path clip-path="url(#SVGID_2_)" fill="#010101" d="M317.179,295.341c0.441-1.289,0.661-2.447,0.661-3.477v-12.336
		c0-1.461-0.22-2.939-0.661-4.436h4.112h2.205c3.398,0,6.123,0.946,8.172,2.841c2.05,1.886,3.074,4.314,3.074,7.289
		c0,2.854-0.938,5.254-2.815,7.199c-1.876,1.946-4.656,2.919-8.34,2.919h-1.258H317.179z M323.781,278.646h-0.609v13.141h0.415
		c1.686,0,3.009-0.593,3.969-1.777s1.439-2.75,1.439-4.695c0-1.973-0.497-3.555-1.491-4.748
		C326.509,279.364,325.269,278.725,323.781,278.646"/>
	<path clip-path="url(#SVGID_2_)" fill="#010101" d="M352.65,295.341c0.605-0.839,1.224-1.998,1.854-3.476l6.032-14.309
		c0.363-0.899,0.626-1.721,0.791-2.464h4.501c0.173,0.848,0.419,1.639,0.74,2.374l6.006,14.008c0.83,1.946,1.474,3.235,1.933,3.866
		h-6.331c-0.017-0.64-0.233-1.474-0.648-2.503l-1.025-2.556h-6.226l-1,2.698c-0.311,0.839-0.467,1.625-0.467,2.36H352.65z
		 M361.406,286.611h3.891l-1.972-5.669L361.406,286.611z"/>
	<path clip-path="url(#SVGID_2_)" fill="#010101" d="M393.207,275.093h6.654c-0.441,1.021-0.662,2.192-0.662,3.515v13.18
		c3.053-0.347,5.496-0.921,7.329-1.726l-2.088,5.279h-11.233c0.441-1.384,0.662-2.568,0.662-3.554v-12.713
		C393.868,277.761,393.647,276.433,393.207,275.093"/>
	<path clip-path="url(#SVGID_2_)" fill="#010101" d="M423.372,295.341c0.606-0.839,1.224-1.998,1.855-3.476l6.032-14.309
		c0.363-0.899,0.627-1.721,0.791-2.464h4.501c0.173,0.848,0.419,1.639,0.739,2.374l6.005,14.008
		c0.831,1.946,1.474,3.235,1.933,3.866h-6.33c-0.018-0.64-0.234-1.474-0.649-2.503l-1.024-2.556H431l-0.999,2.698
		c-0.311,0.839-0.467,1.625-0.467,2.36H423.372z M432.128,286.611h3.892l-1.972-5.669L432.128,286.611z"/>
</g>
</svg>
